<svg xmlns="http://www.w3.org/2000/svg" viewBox="0 0 1048.51 778.84"><defs><style>.cls-1{isolation:isolate;}.cls-2{fill:#909cb2;}.cls-3{fill:#422e28;}.cls-4{fill:#2e3e49;}.cls-5{fill:#fff;}.cls-6{fill:#1f2c51;}.cls-7{fill:#ffa26e;}.cls-8{fill:#32427c;}.cls-9{fill:#e58d5c;}.cls-10{fill:#8bd2d8;}.cls-11{fill:#54a1a3;}.cls-12{fill:#e03b3b;}.cls-13{fill:#d87b4c;}.cls-14{fill:#5b3f37;}.cls-15{fill:#5b4e41;}.cls-16{fill:#f9f4f2;}.cls-17{fill:#597a82;}.cls-18{fill:#272824;}.cls-19{fill:#7a574e;}.cls-20{fill:#773703;}.cls-21{fill:#b26632;}.cls-22{fill:#ddcec7;}.cls-23{fill:#352615;}.cls-24{fill:#dbd56a;}.cls-25{fill:#9b976a;}.cls-26{fill:#e5e593;}.cls-27{fill:#fffdae;}.cls-28{fill:#5b413b;}.cls-29{fill:#876861;mix-blend-mode:screen;opacity:0.5;}</style></defs><g class="cls-1"><g id="Layer_2" data-name="Layer 2"><g id="Layer_1-2" data-name="Layer 1"><rect class="cls-2" y="723.28" width="1048.51" height="55.56"/><rect class="cls-3" x="165.32" width="712.6" height="635.31"/><rect class="cls-2" x="203.73" y="33.44" width="209.8" height="237.22"/><rect class="cls-4" x="209.71" y="39.37" width="195.61" height="225.97"/><path class="cls-5" d="M291,56.69a2.56,2.56,0,0,1,2.18,1,3.13,3.13,0,0,1,.61,1.95,10.39,10.39,0,0,1-1.37,4.67,17.19,17.19,0,0,1-3,4.06c-.79.78-1.41,1.16-1.86,1.16a1.1,1.1,0,0,1-.82-.44,1.09,1.09,0,0,1-.28-.72c0-.49.43-1.06,1.29-1.69a12.09,12.09,0,0,0,2.9-3,7.46,7.46,0,0,0,1.59-3.93,1.43,1.43,0,0,0-.29-1,1.09,1.09,0,0,0-.86-.31c-.77,0-1.87.56-3.29,1.69a33.55,33.55,0,0,0-5.14,5.18,35.85,35.85,0,0,0-5.25,8.2,18.27,18.27,0,0,0-1.86,7.15,3.66,3.66,0,0,0,.83,2.41,2.74,2.74,0,0,0,2.22,1.12q2.28,0,5.75-3.55a30.46,30.46,0,0,0,2.52-3.13,16.74,16.74,0,0,0,1.24-1.86c.21-.41.46-.62.74-.62s.47.15.47.45c0,.63-.79,2.06-2.37,4.27a19.76,19.76,0,0,1-4.34,4.52,8.6,8.6,0,0,1-5,2,4.24,4.24,0,0,1-3.82-2.22,6,6,0,0,1-.87-3.24q0-4.56,4.31-11.52A42.66,42.66,0,0,1,285,59.8C287.31,57.72,289.32,56.69,291,56.69Z"/><path class="cls-5" d="M298.21,70.24c1.16,0,1.73.71,1.73,2.11,0,1.88-.86,4.25-2.6,7.13-1.89,3.12-3.71,4.67-5.47,4.67a1.89,1.89,0,0,1-1.8-1.14,2.92,2.92,0,0,1-.3-1.37,11.74,11.74,0,0,1,1.86-5.88,14.39,14.39,0,0,1,4.08-4.57A4.56,4.56,0,0,1,298.21,70.24Zm-2.2,8c-.35-.28-.53-.5-.53-.65s.23-.43.68-.93c1.27-1.43,1.9-2.58,1.9-3.45a.66.66,0,0,0-.1-.34.57.57,0,0,0-.53-.32c-.45,0-1.12.44-2,1.32a13.22,13.22,0,0,0-2.58,3.48,8.05,8.05,0,0,0-1,3.41,1.12,1.12,0,0,0,.19.63.83.83,0,0,0,.7.38c.68,0,1.4-.5,2.18-1.52a6.33,6.33,0,0,0,.82-1.31A3.56,3.56,0,0,0,296,78.23Z"/><path class="cls-5" d="M303.58,73.9a74.28,74.28,0,0,1,6.32-11.36,33.59,33.59,0,0,1,3.47-4.31,2.61,2.61,0,0,1,1.63-.95.64.64,0,0,1,.44.17.66.66,0,0,1,.3.57,2.52,2.52,0,0,1-.74,1.33,61.29,61.29,0,0,0-8.46,12.77,16.18,16.18,0,0,1,4.72-1.29,2.52,2.52,0,0,1,1.6.49,1.46,1.46,0,0,1,.66,1.16,1,1,0,0,1-.23.62,1,1,0,0,1-.83.4,4,4,0,0,1-1.42-.6,1.81,1.81,0,0,0-.76-.14,9.82,9.82,0,0,0-5.07,1.92,3.85,3.85,0,0,1,1.8,1.57,7.32,7.32,0,0,1,.72,3.38,23.16,23.16,0,0,1-3.09,10.93,16.66,16.66,0,0,1-2.58,3.72,3.84,3.84,0,0,1-2.73,1.38,2,2,0,0,1-1.71-1,4.33,4.33,0,0,1-.53-2.3q0-3.14,2.37-9.41c.19-.51.76-1.81,1.69-3.92.24-.52.47-1.07.7-1.67a1.32,1.32,0,0,1-.32,0c-.38,0-.57-.21-.57-.64C301,76,301.83,75.05,303.58,73.9Zm.72,2.77a76.18,76.18,0,0,0-3.13,7.23,23.54,23.54,0,0,0-2,7.91,1.7,1.7,0,0,0,.28,1,.84.84,0,0,0,.69.42q1.32,0,3.45-4.39a20.62,20.62,0,0,0,2.41-9,3.9,3.9,0,0,0-.61-2.39A3.57,3.57,0,0,0,304.3,76.67Z"/><path class="cls-5" d="M314.64,73.9A74.28,74.28,0,0,1,321,62.54a33.59,33.59,0,0,1,3.47-4.31,2.61,2.61,0,0,1,1.63-.95.8.8,0,0,1,.74.74,2.52,2.52,0,0,1-.74,1.33,61.29,61.29,0,0,0-8.46,12.77,16.14,16.14,0,0,1,4.71-1.29,2.53,2.53,0,0,1,1.61.49,1.46,1.46,0,0,1,.66,1.16.93.93,0,0,1-.24.62,1,1,0,0,1-.82.4,4,4,0,0,1-1.42-.6,1.81,1.81,0,0,0-.76-.14,9.82,9.82,0,0,0-5.07,1.92,3.78,3.78,0,0,1,1.79,1.57,7.19,7.19,0,0,1,.72,3.38,23.25,23.25,0,0,1-3.08,10.93,16.66,16.66,0,0,1-2.58,3.72,3.84,3.84,0,0,1-2.73,1.38,2,2,0,0,1-1.71-1,4.23,4.23,0,0,1-.53-2.3q0-3.14,2.37-9.41c.19-.51.76-1.81,1.69-3.92.24-.52.47-1.07.7-1.67a1.32,1.32,0,0,1-.32,0c-.38,0-.57-.21-.57-.64C312,76,312.89,75.05,314.64,73.9Zm.72,2.77a76.18,76.18,0,0,0-3.13,7.23,23.54,23.54,0,0,0-2,7.91,1.7,1.7,0,0,0,.28,1,.82.82,0,0,0,.69.42q1.32,0,3.45-4.39a20.62,20.62,0,0,0,2.41-9,3.9,3.9,0,0,0-.61-2.39A3.57,3.57,0,0,0,315.36,76.67Z"/><path class="cls-5" d="M323.86,79.82v.38a1.4,1.4,0,0,0,.23.8,1.94,1.94,0,0,0,1.73.78c1.77,0,3.8-1.35,6.12-4,.4-.47.75-.7,1-.7a.53.53,0,0,1,.42.23.51.51,0,0,1,.13.32c0,.55-.67,1.48-2,2.79a15.32,15.32,0,0,1-3.38,2.52,7.18,7.18,0,0,1-3.34,1,3.08,3.08,0,0,1-2.5-1.1,3.21,3.21,0,0,1-.61-2.07q0-3.59,3.36-7,2.73-2.79,4.76-2.79a1.62,1.62,0,0,1,1,.33,1.43,1.43,0,0,1,.55,1.17,5.48,5.48,0,0,1-1,2.75A11.07,11.07,0,0,1,323.86,79.82Zm.46-1.65A8.56,8.56,0,0,0,326.65,77,9.35,9.35,0,0,0,329,74.45a1.76,1.76,0,0,0,.31-.91c0-.28-.13-.42-.4-.42a2.94,2.94,0,0,0-1.56.82A10.78,10.78,0,0,0,324.32,78.17Z"/><path class="cls-5" d="M335.74,79.82v.38a1.4,1.4,0,0,0,.23.8,2,2,0,0,0,1.74.78q2.64,0,6.11-4c.41-.47.75-.7,1-.7a.57.57,0,0,1,.43.23.56.56,0,0,1,.12.32c0,.55-.67,1.48-2,2.79A15.38,15.38,0,0,1,340,82.89a7.18,7.18,0,0,1-3.34,1,3.05,3.05,0,0,1-2.49-1.1,3.21,3.21,0,0,1-.62-2.07q0-3.59,3.36-7,2.73-2.79,4.76-2.79a1.64,1.64,0,0,1,1,.33,1.46,1.46,0,0,1,.55,1.17,5.51,5.51,0,0,1-1,2.75A11,11,0,0,1,335.74,79.82Zm.47-1.65A8.63,8.63,0,0,0,338.53,77a9.35,9.35,0,0,0,2.35-2.58,1.79,1.79,0,0,0,.32-.91.37.37,0,0,0-.4-.42,3,3,0,0,0-1.57.82A10.77,10.77,0,0,0,336.21,78.17Z"/><path class="cls-5" d="M261.07,125.84a4.62,4.62,0,0,0-5.11-1.93v-.08c0-.5,0-1-.07-1.55v-.22H231.26v.22c-.05.53-.07,1-.07,1.55,0,5.38,2.4,10.34,6.29,13a1,1,0,0,0,0,.17,3.38,3.38,0,0,0,3.38,3.39h5.46a3.38,3.38,0,0,0,3.38-3.39v-.18a13.36,13.36,0,0,0,3.29-3.25,5.06,5.06,0,0,0,1.7.29,5.89,5.89,0,0,0,2.92-.8l1.19-.69a5.65,5.65,0,0,0,2.54-3A4.14,4.14,0,0,0,261.07,125.84Zm-11.78,10.65s-.09.41-.09.5a2.9,2.9,0,0,1-2.9,2.9h-5.46a2.9,2.9,0,0,1-2.9-2.9,2.44,2.44,0,0,1,0-.27l-.1-.23c-3.82-2.54-6.19-7.39-6.19-12.66,0-.42,0-.85.05-1.29h23.72c0,.45,0,.87,0,1.29,0,.07,0,.14,0,.21v.31C255.32,129.42,253,134,249.29,136.49Zm11.35-7.34a5,5,0,0,1-2.22,2.58l-1.2.69a4.88,4.88,0,0,1-3.84.52,16.83,16.83,0,0,0,2.56-8.28,3.94,3.94,0,0,1,4.5,1.55A3.45,3.45,0,0,1,260.64,129.15Z"/><path class="cls-5" d="M240.58,120a10.82,10.82,0,0,0-.49-1.49c-.33-.82.57-1.48,1.06-2a3.16,3.16,0,0,0,.76-3.16c-.06-.18-.35-.1-.29.08.59,2.08-1.05,2.72-1.84,4.29-.34.67.35,1.72.5,2.37a.16.16,0,0,0,.3-.08Z"/><path class="cls-5" d="M242.88,119.84a11.34,11.34,0,0,0-.5-1.49c-.32-.81.58-1.48,1.07-2a3.14,3.14,0,0,0,.76-3.15.16.16,0,0,0-.3.08c.6,2.08-1,2.71-1.83,4.28-.34.68.35,1.73.5,2.37a.16.16,0,0,0,.3-.08Z"/><path class="cls-5" d="M245.29,119.84a11.29,11.29,0,0,0-.49-1.49c-.32-.81.57-1.48,1.06-2a3.14,3.14,0,0,0,.76-3.15.15.15,0,0,0-.29.08c.59,2.08-1.05,2.71-1.84,4.28-.34.68.36,1.73.51,2.37,0,.19.33.11.29-.08Z"/><rect class="cls-5" x="270.63" y="120.58" width="32.82" height="1.37"/><rect class="cls-5" x="270.63" y="131.52" width="32.82" height="1.37"/><rect class="cls-5" x="270.63" y="126.74" width="56.98" height="1.37"/><path class="cls-5" d="M347.93,132.58c-1.33-3.55-7-7.21-2-10.71,3.92-2.74,9.4-3,14-2.69s8.53,1.75,11.14,5.67c3,4.49.18,8.83-4.85,9.44a20.61,20.61,0,0,1-12-2.47c-1.82-1-3.87-2.47-4.64-4.48-1-2.63,3-3.38,4.67-3.66a13.85,13.85,0,0,1,9.46,1.61c2.44,1.44,1.13,3.15-1.17,3.66s-4.82-.68-5.19-3l-.83,1.08c1.56-.07,3.1.08,4.65-.05,1.09-.1,1.1-1.81,0-1.71-1.55.13-3.09,0-4.65,0a.87.87,0,0,0-.82,1.08c.6,3.78,5,5,8.23,4,3.47-1.09,3.72-4.28,1-6.28-3-2.2-6.87-2.52-10.4-2.14-3.28.35-7.55,1.75-6.62,5.86.85,3.81,6.24,6.19,9.53,7.21,4.07,1.27,9.34,1.89,13.18-.36,3.63-2.13,4.07-6.2,2.39-9.73-1.92-4.06-5.87-6.21-10.09-7-5.93-1.15-12.65-.67-17.9,2.52a5.81,5.81,0,0,0-2.82,5.8c.5,2.82,3.08,4.26,4,6.83.39,1,2,.58,1.65-.45Z"/><path class="cls-5" d="M260.26,171.93a4.62,4.62,0,0,0-5.11-1.93v-.08c0-.5,0-1-.06-1.55l0-.23H230.46l0,.23c-.05.53-.07,1-.07,1.55,0,5.38,2.41,10.34,6.29,13a1,1,0,0,0,0,.17,3.39,3.39,0,0,0,3.38,3.39h5.46a3.39,3.39,0,0,0,3.39-3.39c0-.06,0-.12,0-.18a13.36,13.36,0,0,0,3.29-3.25,5.1,5.1,0,0,0,1.7.29,5.89,5.89,0,0,0,2.92-.8l1.19-.69a5.61,5.61,0,0,0,2.54-3A4.14,4.14,0,0,0,260.26,171.93Zm-11.77,10.65a4.83,4.83,0,0,0-.1.5,2.9,2.9,0,0,1-2.9,2.9H240a2.9,2.9,0,0,1-2.9-2.9,2.45,2.45,0,0,1,0-.27l-.11-.23c-3.82-2.54-6.19-7.39-6.19-12.66,0-.42,0-.85.05-1.29h23.72c0,.45,0,.87,0,1.29v.52C254.51,175.51,252.17,180.13,248.49,182.58Zm11.34-7.34a5,5,0,0,1-2.22,2.58l-1.19.69a4.89,4.89,0,0,1-3.84.52,16.92,16.92,0,0,0,2.55-8.28,4,4,0,0,1,4.5,1.54A3.48,3.48,0,0,1,259.83,175.24Z"/><path class="cls-5" d="M239.77,166.05a10.82,10.82,0,0,0-.49-1.49c-.32-.82.57-1.48,1.06-2a3.12,3.12,0,0,0,.76-3.15c0-.18-.35-.1-.29.08.59,2.08-1.05,2.72-1.84,4.29-.34.67.36,1.72.51,2.37,0,.19.33.11.29-.08Z"/><path class="cls-5" d="M242.07,165.93a10.82,10.82,0,0,0-.49-1.49c-.33-.81.57-1.48,1.06-2a3.14,3.14,0,0,0,.76-3.15.15.15,0,0,0-.29.08c.59,2.08-1.05,2.71-1.84,4.28-.34.68.36,1.73.51,2.37,0,.19.33.11.29-.08Z"/><path class="cls-5" d="M244.48,165.93a9.62,9.62,0,0,0-.49-1.49c-.32-.81.57-1.48,1.06-2a3.12,3.12,0,0,0,.76-3.15.15.15,0,0,0-.29.08c.59,2.08-1,2.71-1.84,4.28-.34.68.36,1.73.51,2.37,0,.19.34.11.29-.08Z"/><rect class="cls-5" x="270.63" y="166.67" width="24.66" height="1.37"/><rect class="cls-5" x="270.63" y="177.61" width="24.66" height="1.37"/><rect class="cls-5" x="270.63" y="172.83" width="33.28" height="1.37"/><path class="cls-5" d="M345.43,161.49l.36-.08c-.15-.34-.29-.69-.44-1-.92.66-2.34.82-3.35,1.39-1.31.74-2.1,2.68-2.63,4-1.39,3.47,1.81,4.4,4.59,4.61,1.74.13,3.49,0,5.22.13,2.32.19,3.76,1.52,6.19.72a14.62,14.62,0,0,0,2.78-1.62c1.64-1,3.83-.55,5.59-.16a21.42,21.42,0,0,0,7.25.79c2.34-.26,6.43-.24,7.8-2.61,1.62-2.82-.94-5.09-3.44-5.9a22,22,0,0,0-5.17-.77c-3-.23-6-.52-9.05-.69-3.5-.19-7-.27-10.51-.31a19.71,19.71,0,0,0-5.49.46c-.72.17-.41,1.27.3,1.09,3.62-.9,7.62-.4,11.33-.28,4.64.14,9.25.55,13.87.9a23.53,23.53,0,0,1,4.42.7c1.78.49,4.21,2.37,2.63,4.39s-5.81,1.82-8.08,2c-3.9.36-7.45-2.25-11.37-.94-2.23.75-3.27,2.57-6,2a21,21,0,0,0-3.83-.94c-2.11-.1-8.9.87-8.13-2.72a6.39,6.39,0,0,1,2.9-4.16,17.76,17.76,0,0,0,2.71-1.07.57.57,0,0,0-.43-1,1.9,1.9,0,0,0-.36.09A.57.57,0,0,0,345.43,161.49Z"/><path class="cls-5" d="M343.34,170.06c.31,8.62,6.52,15.52,15.34,15.63,3.91.05,8.61.23,11.74-2.48s3.11-8.8,3.23-12.69a.57.57,0,0,0-1.14,0c-.11,3.76,0,8.36-2.49,11.46s-7.35,2.42-10.73,2.55c-8.43.32-14.52-6.29-14.81-14.47,0-.73-1.17-.73-1.14,0Z"/><path class="cls-5" d="M349.74,170.82c-.72,2.29,1.11,5.87,2,7.89s2.42,6.15,5,6.72c.72.15,1-1,.3-1.1-2.26-.49-3.71-4.68-4.48-6.52-.69-1.65-2.3-4.85-1.73-6.69.22-.7-.88-1-1.1-.3Z"/><path class="cls-5" d="M355.67,170.14c-.54,1.83.52,3.84,1.21,5.49a22,22,0,0,1,1.5,9.25.57.57,0,0,0,1.14,0c0-2.49.14-5.06-.68-7.43-.69-2-2.72-4.82-2.07-7a.57.57,0,0,0-1.1-.3Z"/><path class="cls-5" d="M361.74,169.32c3.55,4.06,2.46,10.52,1.77,15.4-.1.72,1,1,1.1.31.75-5.35,1.82-12.08-2.06-16.51-.49-.56-1.29.25-.81.8Z"/><path class="cls-5" d="M368.75,170.63c.63.06.15,5.46.1,6a15.63,15.63,0,0,1-2.7,7.2c-.39.63.59,1.2,1,.58a18.21,18.21,0,0,0,3-9.2c.08-1.25.67-5.52-1.36-5.71-.73-.07-.72,1.07,0,1.14Z"/><path class="cls-5" d="M345,166.22a5.52,5.52,0,0,1,1.35-.51c.72-.15.41-1.25-.3-1.1a6.8,6.8,0,0,0-1.62.63c-.66.33-.08,1.31.57,1Z"/><path class="cls-5" d="M351.83,164.51a4.52,4.52,0,0,0,1.73.74c.72.16,1-.94.3-1.09a4,4,0,0,1-1.46-.63.57.57,0,1,0-.57,1Z"/><path class="cls-5" d="M360.28,164.91c.53.11,1.06.24,1.6.34.71.15,1-.95.3-1.09l-1.6-.35c-.71-.14-1,1-.3,1.1Z"/><path class="cls-5" d="M351.89,168.35a10.81,10.81,0,0,0,2-.13c.72-.14.42-1.23-.3-1.1a9.36,9.36,0,0,1-1.67.09.57.57,0,0,0,0,1.14Z"/><path class="cls-5" d="M369.06,166.28a7.38,7.38,0,0,0,1.63.13.57.57,0,0,0,0-1.13,6.62,6.62,0,0,1-1.33-.1c-.72-.16-1,.94-.3,1.1Z"/><path class="cls-5" d="M373.31,164.7a.45.45,0,0,1-.2,0l-.21-.2a.14.14,0,0,1,0-.06.56.56,0,0,0,.7.4.57.57,0,0,0,.39-.7.66.66,0,0,0-.66-.53.57.57,0,1,0,0,1.13Z"/><path class="cls-5" d="M259.45,218.83a4.62,4.62,0,0,0-5.11-1.93v-.08c0-.5,0-1-.06-1.55l0-.23H229.65l0,.22c0,.54-.07,1.05-.07,1.56,0,5.38,2.41,10.34,6.29,13,0,.05,0,.11,0,.17a3.39,3.39,0,0,0,3.38,3.39h5.46a3.39,3.39,0,0,0,3.39-3.39c0-.06,0-.12,0-.18a13.36,13.36,0,0,0,3.29-3.25,5.1,5.1,0,0,0,1.7.29A5.87,5.87,0,0,0,256,226l1.19-.69a5.67,5.67,0,0,0,2.55-3A4.18,4.18,0,0,0,259.45,218.83Zm-11.77,10.65a4.83,4.83,0,0,0-.1.5,2.9,2.9,0,0,1-2.9,2.9h-5.46a2.91,2.91,0,0,1-2.9-2.9,2.45,2.45,0,0,1,0-.27l-.11-.23c-3.81-2.54-6.18-7.39-6.18-12.66,0-.42,0-.85,0-1.29h23.72c0,.45.05.87.05,1.29v.52C253.7,222.41,251.37,227,247.68,229.48ZM259,222.14a4.92,4.92,0,0,1-2.22,2.58l-1.19.69a4.89,4.89,0,0,1-3.84.52,16.92,16.92,0,0,0,2.55-8.28,3.94,3.94,0,0,1,4.5,1.54A3.48,3.48,0,0,1,259,222.14Z"/><path class="cls-5" d="M239,213a10.11,10.11,0,0,0-.49-1.5c-.32-.81.57-1.47,1.06-2a3.12,3.12,0,0,0,.76-3.15.15.15,0,0,0-.29.08c.59,2.08-1,2.71-1.84,4.29-.34.67.36,1.72.51,2.37,0,.19.33.11.29-.08Z"/><path class="cls-5" d="M241.26,212.83a9.62,9.62,0,0,0-.49-1.49c-.32-.81.57-1.48,1.06-2a3.12,3.12,0,0,0,.76-3.15.15.15,0,0,0-.29.08c.59,2.08-1,2.71-1.84,4.28-.34.68.36,1.73.51,2.37,0,.19.33.11.29-.08Z"/><path class="cls-5" d="M243.67,212.83a9.62,9.62,0,0,0-.49-1.49c-.32-.81.57-1.48,1.07-2a3.11,3.11,0,0,0,.75-3.15.15.15,0,0,0-.29.08c.59,2.08-1,2.71-1.83,4.28-.34.68.35,1.73.5,2.37a.15.15,0,0,0,.29-.08Z"/><rect class="cls-5" x="270.63" y="213.56" width="32.82" height="1.37"/><rect class="cls-5" x="270.63" y="224.5" width="32.82" height="1.37"/><rect class="cls-5" x="270.63" y="219.73" width="67.46" height="1.37"/><path class="cls-5" d="M350.6,216.79c-3.17.87-6.45,2.85-7.16,6.3-.51,2.48,1.2,4.23,3.54,4.54a10,10,0,0,0,5.27-1.29c1.46-.67,2.67-1.71,4.21-2.2,1.9-.61,4.13.48,5.91,1,2.37.74,4.9.24,7.27-.24a14.15,14.15,0,0,1,8.4.39c2.89,1.12,7.83,3.68,10.11.13,1.87-2.9-1.28-5.57-3.42-7.16-7.8-5.83-17.5-8.26-26.89-5.19a24.51,24.51,0,0,0-7.49,3.84c-.58.45.23,1.25.8.81,4.52-3.57,11.2-5.2,17-4.89,5.11.28,9.72,2.44,14,5.08a20.17,20.17,0,0,1,4.39,3.47c2.2,2.43.16,5.06-2.86,4.62a27.88,27.88,0,0,1-5.85-2,11.84,11.84,0,0,0-5.84-.67c-2.5.28-4.86,1-7.4,1s-5.06-2-7.78-1.49c-3.29.61-8.47,6-11.75,2.7-1.09-1.09-.48-2.93.18-4.05,1.17-2,3.5-3.08,5.64-3.67A.57.57,0,0,0,350.6,216.79Z"/><path class="cls-5" d="M358.58,223.39a18.22,18.22,0,0,0-2.91-2.62c-1.81-1.44-3.53-2.79-3.82-4.48l.45-.08c.26,1.52,1.91,2.82,3.66,4.2a19,19,0,0,1,3,2.69Z"/><path class="cls-5" d="M377,225a.26.26,0,0,1-.28-.18c-.07-.22.1-.34.71-.77a7.37,7.37,0,0,0,2.1-1.89,5.34,5.34,0,0,0,.61-3.72,7.28,7.28,0,0,0-2.69-3.11c-.44-.36-.86-.69-1.21-1l.31-.33c.34.33.75.66,1.18,1a7.67,7.67,0,0,1,2.85,3.34,5.82,5.82,0,0,1-.65,4.07,7.58,7.58,0,0,1-2.24,2,3.76,3.76,0,0,0-.55.41.2.2,0,0,0,0-.18.19.19,0,0,0-.15-.12V225Z"/><path class="cls-6" d="M654.75,723.9l-6,.45-4.72,11c2.93,2.13,18.23,5.21,27.78,3.71C668.91,737.64,656.91,725.33,654.75,723.9Z"/><path class="cls-7" d="M653.31,717.27l-6.37-.73c.51,2.19,2.27,16.82,6.75,13.16C657.28,726.77,652.75,720.74,653.31,717.27Z"/><path class="cls-6" d="M555,724.55l5.86,1.46,2.78,11.64c-3.25,1.6-12.74,3.1-21.9,0C544.77,736.74,552.58,725.58,555,724.55Z"/><path class="cls-7" d="M556.33,716.56l5.31-.52c-.26,2.23-.33,17-5.2,13.85C552.54,727.39,556.11,720.12,556.33,716.56Z"/><path class="cls-8" d="M568.24,563.91c-4.37,26.47,16.85,22.5,15.67,49-1,21.58-15.46,55.86-22.33,108.52l-7.52-.16a395.68,395.68,0,0,0-2.33-52.47c-3.39-31.15-9.21-55.64-9.82-85.53-.61-29.51-10.5-53.67-14.35-82.55-2.23-16.76-14.6-88.48-2.45-112.2L588,409.72c.43,12.22-.8,28.62-2.85,46.36C580.55,495.8,571.81,542.3,568.24,563.91Z"/><path class="cls-6" d="M583.91,612.89c-1,21.58-15.46,55.86-22.33,108.52l-7.52-.16a395.68,395.68,0,0,0-2.33-52.47c9.52-6.35,17-13.54,21.51-25.11,4.36-11.25,4.76-23.76,2.85-35.36-1.2-7.31-10.49-29.95-20.41-19.81,1.41-4.39,3.09-8.51,4.39-12.8-3.66.18-7.35,1.16-11.07,1.69,16.18-18.5,5-123.89-1.64-155.77-1.31-6.36,36,6.54,35.83,0l2,34.46c-4.6,39.72-13.34,86.22-16.91,107.83C563.87,590.38,585.09,586.41,583.91,612.89Z"/><path class="cls-8" d="M654.34,720.43H647.4c-5.33-13.42-11.56-29.38-17.46-44.68-8.5-22-16.32-42.66-19.83-52.42-9-24.94,6.65-33.79-5.37-57.78-11.55-23-35.43-88.19-51.33-131.51-4.83-13.16-31.92-13.13-33.57-21.4,6.06-1.2,29.25-16.23,35.21-17.86,10.92-3,19.29-7.89,30.39-10.08,5.27-1,23.72,14.58,24.85,23.23,4.16,15.64,12.1,78.37,20.52,126.83,4.3,24.79,8.73,45.86,12.83,55C663.18,633.1,643.89,677.26,654.34,720.43Z"/><path class="cls-6" d="M654.34,720.43H647.4c-5.33-13.42-11.56-29.38-17.46-44.68,5.35-1.47,10.45-3.6,14.51-7.73,7.19-7.33,5.43-18.48,4.46-27.86-1.8-17.57-8.45-37.29-17.36-52.95-1.48.18-3.53-.54-5-.22,2.22-2.14,4.93-4.07,7.19-5.88-2.87-1.82-7.67-2.61-11.3-2.77,9.7-4.84,7.38-21.3,7.89-31.68q.3-6,.47-11.9c4.3,24.79,8.73,45.86,12.83,55C663.18,633.1,643.89,677.26,654.34,720.43Z"/><path class="cls-9" d="M375.71,262.41c55.94,2.62,107.75-15.33,108.08,1.06-.63,6.92-3.16,19.31-7.94,22.76-11.09,8-32,9.22-47,7.7-10-1-33.4-6.48-53.2-11.41C375.41,275.83,375.66,269.11,375.71,262.41Z"/><path class="cls-10" d="M527,205.18c-17.6,16.26-50.37,42-61.19,50.29,2.93,4.39,16.23,38.19,16.46,39,3.22-1.52,6.63-3.33,10.17-5.4,20.66-12.06,45.72-32.77,63.37-53.56Z"/><path class="cls-10" d="M499.74,288.31c-2.92,2.82-15.11,11.39-27.06,11.82-3.7-15.91-10.49-34-16.22-49.19l1.84.13,11.73.83a31.55,31.55,0,0,1,8,4.61C488,264.34,494.45,277.75,499.74,288.31Z"/><path class="cls-11" d="M499.74,288.31c-2.92,2.82-15.11,11.39-27.06,11.82-3.7-15.91-10.49-34-16.22-49.19l1.84.13c3.09,4.92,6.11,9.73,9.07,14.77,3.6,6.13,8,11.91,10.29,18.62,1.34-2.78.18-9.84-.47-12.83.94,2.58,3.74,6,5.29,8.37.8-4.53-1.25-10.94-2.12-15.53a59.16,59.16,0,0,0-2.36-8C488,264.34,494.45,277.75,499.74,288.31Z"/><path class="cls-10" d="M622.36,294.9h0c-4.35,25.6-9.33,56-12.8,80.26,0,.05,0,.11,0,.16-2.56,18-4.29,32.59-4.29,39.28l-7,.95c-13.52,1.92-27,4.12-40.68,4.72-5.26.23-39.87.12-42.17-2.86a62.81,62.81,0,0,0,1.67-8.73c2.86-20.7,4.09-63.47,1.55-88.8-.33-3.35-.73-6.4-1.21-9C516.57,306,503,227.08,510.61,219a69,69,0,0,1,9.29-9.19,91.75,91.75,0,0,1,11.55-8.06c11.49-6.81,24.21-11.53,35.47-15.56.77-.29,2.22-.21,4.11-.55a95,95,0,0,1,17.88-1.3,98.78,98.78,0,0,1,12.28.95c12,1.71,22.17,5.7,24.51,12.26,0,0,.72,3.84,1.66,9.27l0,.15C628.27,212.93,625.58,251.72,622.36,294.9Z"/><path class="cls-11" d="M515.42,417.42c2.3,3,36.91,3.09,42.17,2.86,16-.7,38.33-3.51,54.2-5.56-2.11-23.19,3-75.14,10.57-119.81h0c3.22-43.18,5.91-82,5-87.95l0-.16c-4.23,8-8.45,16.36-11.12,22.85-3.56,8.72-16.21,73.46-19.06,86.73-5,23.31-10,45.9-8.31,69.71.2,2.75,1.07,5.54,1.39,8-5.44,1.38-11.62,1.9-17.29,2.51,4.14,2.14,11,3.82,15,7.06-34,16.12-69.54,5.12-70.85,5A62.81,62.81,0,0,1,515.42,417.42Z"/><path class="cls-12" d="M608.79,378.53l6.47-4.85c-11.63-.56-17,.39-17.48-11.05-.37-8.13.59-144.62,3.41-177.37a98.78,98.78,0,0,0-12.28-.95c-4.17,25.34-6.36,60.46-9.29,84.4-16.51.89-32.3-.89-48.87-.64.26-12.9-2.28-45.26.7-66.35a91.75,91.75,0,0,0-11.55,8.06c-1.12,15.74-1.26,37.83-1.26,51.09,0,19.67.21,39.35,0,59v.57c-.55,50.56-12.45,244.87-12.51,259.87,34.56,1.83,83.86-.18,118.23-2C625.22,571.13,603.48,379.89,608.79,378.53Z"/><polygon class="cls-7" points="588.41 184.74 552.6 239.57 541.45 210.37 541.12 200.6 541.01 197.48 540.56 184.16 540.05 181.83 539.6 179.73 538.8 176.01 538.46 174.31 537.64 170.15 537.2 167.9 536.86 166.21 530.75 135.19 565.8 123.45 570.84 139.04 574.51 150.38 575.42 153.18 579.12 164.58 580.44 168.64 580.94 170.18 584.46 181.05 584.82 181.39 588.41 184.74"/><polygon class="cls-11" points="559.85 214.4 552.6 239.56 571.89 212.59 559.85 214.4"/><polygon class="cls-10" points="585.14 180 599.9 182.41 591.35 219.9 559.33 215.12 585.14 180"/><polygon class="cls-11" points="542.01 211.25 552.64 239.83 533.18 220.23 542.01 211.25"/><polygon class="cls-10" points="541.03 195.09 529.14 200.04 524.88 227.16 544.28 216.74 541.03 195.09"/><path class="cls-7" d="M470.38,352.27c-.1-1.1-.19-2.2-.28-3.31,58.06-6.15,110-41.26,114.21-24.95.94,6.42,1.34,18.22-2.25,22.39-8.32,9.68-27.07,15.35-41,17.24-12.53,1.69-48.65,1.35-68.54,1C471.71,360.52,471.14,356.38,470.38,352.27Z"/><path class="cls-10" d="M552.8,317.23c4.33,3.09,29.17,30.4,29.68,31.1,2.42-2.69,4.91-5.74,7.42-9.08,1-1.37,2.08-2.83,3.16-4.37,1.83-2.6,3.67-5.39,5.52-8.32l.87-1.39c16.58-26.7,33.21-64.91,38-93.38,2.19-12.95,1.92-23.89-1.91-30.8-5.34-9.64-18.14-17.28-25.31-7C601.74,206.2,567.52,291.58,552.8,317.23Z"/><path class="cls-10" d="M596.37,335.71c-1.65,3.82-9.77,16.72-20.67,21.72-9.32-13.84-22.32-28.61-33.24-41l1.75-.58,11.17-3.7a30.42,30.42,0,0,1,9.08,1.36C576.63,317.22,587.56,327.61,596.37,335.71Z"/><path class="cls-11" d="M596.37,335.71c-1.65,3.82-9.77,16.72-20.67,21.72-9.32-13.84-22.32-28.61-33.24-41l1.75-.58c4.68,3.54,9.26,7,13.87,10.69,5.6,4.5,11.8,8.36,16.42,13.9.21-3.17-3.48-9.5-5.18-12.12,1.82,2.12,5.68,4.32,8,6-.94-4.66-5.22-10-7.72-14.08a61.34,61.34,0,0,0-5.14-6.73C576.63,317.22,587.56,327.61,596.37,335.71Z"/><path class="cls-11" d="M574,322.14l15.93,17.11c1-1.37,2.08-2.83,3.16-4.37,1.79-2.56,3.64-5.35,5.52-8.32l.87-1.39c16.58-26.7,33.21-64.91,38-93.38C619.81,279.27,587,322.1,574,322.14Z"/><path class="cls-13" d="M579.12,164.58a56.52,56.52,0,0,1-10.68,18.83c-3.52,4.16-9.46,10.07-14.61,12.1-3.63,1.43-8.32,1.84-12.82,2l-.45-13.32-.51-2.33-.45-2.1-.8-3.72-.34-1.7-.82-4.16,36.87-19.77.91,2.8Z"/><path class="cls-7" d="M526.32,186.94c7.16,3,13.37,2.4,18.85,1,12.28-3.17,20.4-8,25.74-13.52,11.45-11.82,10.21-26.8,10.05-35.33l-7.45-28c-5.48-14.34-18.27-40.81-24.62-43-9.37-3.15-47.48,12.9-52.6,20.78-6.57,10.11,2.8,26.27,8.07,39.37,2.35,5.84,5.38,19.95,11.51,35.31,1.65,4.15,3.53,8.38,5.69,12.57C522.8,178.53,524.15,186,526.32,186.94Z"/><path class="cls-13" d="M509.43,142.18c-.69-3.25-3.32-10.62-3.29-14.75-.29-7.42,6.41-7.78,10.48-2.57,3,3.82,8.81,14.15,9.5,14.31-.58,1.36-3.1,3.56-4.82,4.47s-7.41,4-11.5.49C509.69,143.62,509.47,142.65,509.43,142.18Z"/><path class="cls-14" d="M488.5,112.53a35,35,0,0,1-2.14-5.68c-.22-1,.1-4.22-.05-4.28l8,2.33c1.25,1.14,2.19,3.76,3.05,5.29,1.75,3.12,2.94,6.57,4.46,9.81,2.52,5.34,5.68,12.21,5.26,18.25-3-5.93-7.74-10.68-11.93-15.84C492.51,119.2,490.12,116.38,488.5,112.53Z"/><path class="cls-5" d="M509.75,142.78a1.6,1.6,0,0,0,.1.38h0s0,0,0,0a0,0,0,0,1,0,0,.31.31,0,0,0,.13.16,9.38,9.38,0,0,0,2.17.72c.23,0,.47.08.7.12l1.08.09h1l.93-.08h0a10.84,10.84,0,0,0,1.31-.24,8.68,8.68,0,0,0,1.67-.6l.2-.08.23-.12a6,6,0,0,0,1.17-.83l.19-.17.12-.13a3.46,3.46,0,0,0,1-2.48s0,0,0,0c-.22-.4-.42-.8-.63-1.19a18.29,18.29,0,0,0-2.11-3.29,4.77,4.77,0,0,0-3.19-1.85,4.51,4.51,0,0,0-.63,0h0a4.2,4.2,0,0,0-2.47.82,5.91,5.91,0,0,0-1.58,1.85l-.17.31a11.29,11.29,0,0,0-.86,2.38h0a13.8,13.8,0,0,0-.37,2.39A8,8,0,0,0,509.75,142.78Z"/><path class="cls-15" d="M563.62,150.57l-.11,0A.22.22,0,0,1,563.62,150.57Z"/><path class="cls-14" d="M526.32,186.94c7.16,3,13.37,2.4,18.85,1,12.28-3.17,20.4-8,25.74-13.52-.14-1.71-.23-3.08-.22-3.52a26,26,0,0,0-.2-4.13c-.23-1.83-.66-3.67-1-5.46a24.79,24.79,0,0,0-2.06-5.21,43.28,43.28,0,0,0-3.72-5.32c-4.3.29-20.92.13-24.72.85-6.29,1.2-13.15,5.1-18.4,8.7-1.61,1.09-3.19,2.13-4.69,3.22,1.65,4.15,3.53,8.38,5.69,12.57C522.8,178.53,524.15,186,526.32,186.94Z"/><path class="cls-15" d="M563.42,150.47l.09.05Z"/><path class="cls-13" d="M520.18,162.31c5.87-3.32,16-5.09,24.35-6.76s15-3,15-3c0,.55-.3,3.86-.28,3.9a26.93,26.93,0,0,1,.13,4.29c-.55,3.61-4.49,7.26-7.73,10.49-5.58,5.82-11.72,8.12-17.33,7.39a32,32,0,0,1-5.91-7.27C524.43,167.75,521.57,164.94,520.18,162.31Z"/><path class="cls-5" d="M529.15,170.32c1.27-.71,1.61-2.87,3.16-3.09a35.27,35.27,0,0,0,8.13-1.72c4.19-1.43,13.41-3.84,16.4-7.11.09,2,1,3.85-.76,7a59.22,59.22,0,0,1-6.05,6c-3.75,3.1-8.88,6.58-15.5,5.74C532.87,177,530.33,172.69,529.15,170.32Z"/><path class="cls-5" d="M521.26,163a54,54,0,0,0,6,6.29c5.88,1.32,18.23-4,22.2-6.35,3.74-2.3,7.42-6.67,7.47-6.58a5.4,5.4,0,0,0-.52-3C548.6,155.94,536.42,160.88,521.26,163Z"/><path class="cls-16" d="M521.26,163a54,54,0,0,0,6,6.29c5.88,1.32,18.23-4,22.2-6.35,3.74-2.3,7.42-6.67,7.47-6.58a5.4,5.4,0,0,0-.52-3L552,154.92c-.14,1.35-.67,4.54-3.57,6.09-4.08,2.1-16.69,6.88-22.65,5.4-1.61-1.44-2.75-2.62-3.61-3.55Z"/><path class="cls-13" d="M512.89,122.49c14,4.41,18.54,20.71,16.32,29.17,3.33.45,5,1.12,8.25.1a16.06,16.06,0,0,1-13.36,2.91C524.25,154.23,530.91,133.5,512.89,122.49Z"/><path class="cls-13" d="M561.07,121.48c-2-2.71-5.32-9.84-9-12.47-6.23-5-13.78-1.48-14.24,5.56-.34,5.19,1.17,14,1.8,16.52.14.53-1.38,2.87-2.09,3.61,2,.34,7-.54,10-1.51s12.82-4.16,14.83-10.12A14.51,14.51,0,0,0,561.07,121.48Z"/><path class="cls-5" d="M541,129.75a0,0,0,0,1,0,0c.09.42.21.85.32,1.3l0,0h0a4.74,4.74,0,0,0,2.51.73,9.45,9.45,0,0,0,1.18,0,13.85,13.85,0,0,0,1.48-.21l.47-.1a4.77,4.77,0,0,0,.51-.13l.1,0c.58-.15,1.18-.33,1.78-.54a29.09,29.09,0,0,0,2.75-1.14l.26-.13.37-.18c.78-.39,1.54-.83,2.28-1.28l0,0a20.59,20.59,0,0,0,5.66-4.93.25.25,0,0,0,0-.24h0a1.09,1.09,0,0,0-.26-.37c-.9-1-3.77-2.51-7.27-3a15,15,0,0,0-1.52-.17c-.42,0-.84,0-1.27,0a12,12,0,0,0-1.56.13l-.5.08a11.93,11.93,0,0,0-4.91,2l-.38.28a7.46,7.46,0,0,0-1.36,1.32,5.28,5.28,0,0,0-1.11,2.63A11.1,11.1,0,0,0,541,129.75Z"/><path class="cls-17" d="M540,123.32a12.85,12.85,0,0,0,.6,2.45c.16.45.35.9.56,1.36a11.74,11.74,0,0,0,3.87,4.68,13.85,13.85,0,0,0,1.48-.21,1.77,1.77,0,0,0,.91-.15l.17-.1c.58-.15,1.18-.33,1.78-.54a29.09,29.09,0,0,0,2.75-1.14,14.41,14.41,0,0,0-1.38-7.13,13.17,13.17,0,0,0-.83-1.48,12.87,12.87,0,0,0-1.18-1.57h-.37a11.23,11.23,0,0,0-7,2.44,7.39,7.39,0,0,0-1.19,1.18Z"/><path class="cls-18" d="M543.15,128.66c.82,1.71,2.16,2.84,3.34,2.94a1.77,1.77,0,0,0,.91-.15l.17-.1c1.15-.74,1.31-2.89.33-4.95a6.74,6.74,0,0,0-.76-1.23,6.44,6.44,0,0,0-.47-.55c-1-1-2.14-1.43-3-1C542.34,124.24,542.12,126.5,543.15,128.66Z"/><path class="cls-5" d="M545.65,126c.3.62.89,1,1.31.76s.53-.87.23-1.5-.89-1-1.31-.76S545.35,125.36,545.65,126Z"/><path class="cls-7" d="M541.34,131.19c-.9-3.54-1.66-6.63,1.76-9.26,7.14-5.5,16.86-.57,17.65,1-.8-1.83-11.62-9-18.81-3.48C538.52,122.09,540.44,127.65,541.34,131.19Z"/><path class="cls-14" d="M556.75,99.61c-6.37-4-16.71.06-23.8,4.39,1.8,2.18,4.76,6.82,6.56,9a41.31,41.31,0,0,1,4.5-4.47c-.55-.9-1.09-1.81-1.63-2.72.78.5,1.55,1,2.3,1.57A42.24,42.24,0,0,1,556.75,99.61Z"/><path class="cls-14" d="M499,124.4c-.76-6,8.78-13.58,15.43-15.72.64,2.72,2.12,9.68,2.75,12.41a30.81,30.81,0,0,0-5.43.21l-1.11-3c0,.9-.06,1.79-.05,2.68A30.31,30.31,0,0,0,499,124.4Z"/><path class="cls-14" d="M479,104.86s4.65,9.73,18.12,7.79c9-1.29,31.28-22.27,38.09-25,5.48-2.22,10.09-2.81,14-2.21,6.42,1,10.9,5.18,14.11,10.71.58,1,1.12,2.05,1.62,3.13,5.8,12.4,6.59,29,8.49,32.45l9.73-12.37c-1.32-4.84.23-9.37-.68-27.67-.12-2.32-.27-4.85-.47-7.63,0-.1,0-.2,0-.29-.28-3.76.1-15.5-11.37-18l-.77-.15a70.58,70.58,0,0,0-13.11-.79c-2.33.14-7.69-4-9.89-3.75C487.92,66.87,479,104.86,479,104.86Z"/><path class="cls-19" d="M549.19,85.42c6.42,1,10.9,5.18,14.11,10.71.58,1,1.12,2.05,1.62,3.13,4.49-1.67,8.89-3.4,13.23-5.47,1.44-.69,2.88-1.39,4.31-2.12-.12-2.32-.27-4.85-.47-7.63,0-.1,0-.2,0-.29-.28-3.76.1-15.5-11.37-18a48,48,0,0,1-10.69,12.42A75.12,75.12,0,0,1,549.19,85.42Z"/><path class="cls-7" d="M575.77,132.6l-2.89-13.32c-3.87-10,20.34-19,17-.74-.89,4.85-1.08,9.69-3.12,14.15C584.41,137.74,577.81,139,575.77,132.6Z"/><path class="cls-9" d="M579.13,124.27a3.33,3.33,0,0,0-3.81-2.27c-1.75-3.25-.81-6.11,2-8.44,2.27-1.88,7.52-4.19,9.86-1.15a11.74,11.74,0,0,0-6.92,2.27c-1.86,1.26-2.46,3.07-3.58,4.84,3.29-1.65,7.91.19,6.88,4.27-.81,3.18-3.93,4.44-6.29,6.1l-.15,0C578.25,127.85,579.8,126.84,579.13,124.27Z"/><path class="cls-17" d="M509.69,140.93a12.69,12.69,0,0,0,2.48,3.16c.23,0,.47.08.7.12l.44,0,.64.05h1l.79-.07h.15a10.84,10.84,0,0,0,1.31-.24,8.68,8.68,0,0,0,1.67-.6,14.47,14.47,0,0,0-1.46-7.22,12.89,12.89,0,0,0-.78-1.43,14.31,14.31,0,0,0-1.1-1.53h-.36a4.2,4.2,0,0,0-2.47.82,5.91,5.91,0,0,0-1.58,1.85l-.17.07c-.73.34-1,1.37-.86,2.62h0A13.8,13.8,0,0,0,509.69,140.93Z"/><path class="cls-18" d="M510.76,139.74h0a7,7,0,0,0,.64,2.1,6.27,6.27,0,0,0,1.91,2.4l.64.05h1l.79-.07c.59-.81.55-2.43-.16-4.06a2.72,2.72,0,0,0-.11-.25,7.42,7.42,0,0,0-1.17-1.75,2.68,2.68,0,0,0-2.48-1.12l-.17.07C510.9,137.46,510.6,138.49,510.76,139.74Z"/><path class="cls-5" d="M514.44,140.48c.28.6.81,1,1.17.78s.42-.8.13-1.4-.81-1-1.17-.78S514.15,139.88,514.44,140.48Z"/><path class="cls-7" d="M521.77,139.65c-1.68-3.24-3.16-6.05-5.93-6.34-5.77-.6-6.57,8.29-6,9.93-.74-1.85-.83-13.07,5-12.46C517.63,131.06,520.09,136.41,521.77,139.65Z"/><rect class="cls-20" x="85.47" y="722.12" width="816.96" height="28.94"/><rect class="cls-21" x="69.02" y="390.16" width="849.86" height="341.74"/><rect class="cls-20" x="578.89" y="390.16" width="339.98" height="341.74"/><rect class="cls-20" x="37.45" y="390.16" width="914.33" height="19.64"/><rect class="cls-20" x="97.4" y="444.8" width="133.36" height="261.8"/><rect class="cls-21" x="124.82" y="452.95" width="96.35" height="245.49"/><rect class="cls-20" x="256.19" y="444.8" width="133.36" height="261.8"/><rect class="cls-21" x="283.6" y="452.95" width="96.35" height="245.49"/><rect class="cls-20" x="414.97" y="444.8" width="133.36" height="261.8"/><rect class="cls-21" x="442.39" y="452.95" width="96.35" height="245.49"/><path class="cls-7" d="M461.72,345.2a18.14,18.14,0,0,0-2.83-3.42c-2.37-1.83-5.9-1.71-8.77-2.76-1.35-.49-10.35-4.86-9.85-1.6.17,1.13,2.69,3.92,3.39,4.9.93,1.33,6.26,1.85,7.39,2.89L466.83,350C466.2,348.3,463,346.78,461.72,345.2Z"/><path class="cls-5" d="M433.25,334V349.4a6.8,6.8,0,0,1-5.85,6.73,7.3,7.3,0,0,1-.94.06H398.62a7.3,7.3,0,0,1-.94-.06,6.72,6.72,0,0,1-1.57-.42,6.79,6.79,0,0,1-4.28-6.31V334Z"/><path class="cls-5" d="M428.27,352.8a6.78,6.78,0,0,1-6.79,6.79H403.6a6.77,6.77,0,0,1-5.92-3.46,5.85,5.85,0,0,1-.28-.56,6.79,6.79,0,0,1,6.2-9.56h17.88a6.8,6.8,0,0,1,6.6,5.22A6.31,6.31,0,0,1,428.27,352.8Z"/><path class="cls-22" d="M442.94,338.94c-1.75-1.74-4.06-1.89-6.36-1.89-1.09,0-2.22-.05-3.33,0a13.48,13.48,0,0,0-2.63.26c-3.12.67-5.05,3.72-5.18,6.73a11.88,11.88,0,0,0,.3,3.51,7.06,7.06,0,0,0,1.89,3.3,5.57,5.57,0,0,0,.45.41,7.29,7.29,0,0,0,4.33,1.44c.52,0,1,.05,1.58.05a29,29,0,0,0,6-.23c3-.66,5-3.57,5.16-6.51a1.62,1.62,0,0,0,0-.22v-.17C445.12,343.05,444.85,340.85,442.94,338.94Zm-1.2,6.82c-.19,4.23-4.8,3.56-7.75,3.56h-.74a4.55,4.55,0,0,1-3.22-.9c-1.35-1.14-1.19-2.83-1.19-4.41,0-2.8,2.14-3.45,4.41-3.58,1.17-.06,2.37,0,3.33,0,1.43,0,2.78-.11,4,.89C441.89,342.49,441.74,344.17,441.74,345.76Z"/><path class="cls-16" d="M442.94,338.94c-1.75-1.74-4.06-1.89-6.36-1.89-1.09,0-2.22-.05-3.33,0v-3H421.66c0,1.28,0,2.56.06,3.81a17.51,17.51,0,0,1-1.43,8.18,6.8,6.8,0,0,1-1.52,2c-4,3.52-10.65.66-15,2.72,1.2.43,3.89-.09,3.87,1.81s-3.2,1.82-4.51,2.09c-1.92.39-3.84.68-5.76.9l-1.29.14a6.72,6.72,0,0,0,1.57.42,6.77,6.77,0,0,0,5.92,3.46h17.88a6.77,6.77,0,0,0,5.92-3.46,6.79,6.79,0,0,0,5-3.46c.52,0,1,.05,1.58.05a29,29,0,0,0,6-.23c3-.66,5-3.57,5.16-6.51a1.62,1.62,0,0,0,0-.22v-.17C445.12,343.05,444.85,340.85,442.94,338.94Zm-1.2,6.82c-.19,4.23-4.8,3.56-7.75,3.56h-.74v-8.89c1.17-.06,2.37,0,3.33,0,1.43,0,2.78-.11,4,.89C441.89,342.49,441.74,344.17,441.74,345.76Z"/><path class="cls-7" d="M473.71,348.54c-4.24-.46-12.59-1.86-16.81-3.78-2.68-1.22-11.78-3.63-14.38-4.54-2.44-.84-5.35-2.79-7.06-.77-1.1,1.31.1,4.36-1,5.66-3.3,4,.58,8.16.8,9.75.26,1.92,0,3.15,1.25,4.78,1.11,1.47,1.58,1.2,2.87,2.52,1,1,1.11,1.84,2.25,2.75,3.42,2.73,11.2,1.85,15.27,1.33,3.85-.48,16.68-.49,19.76-2.94Z"/><path class="cls-23" d="M410.77,307.9a2.86,2.86,0,0,1-2.86,2.86h0a2.86,2.86,0,0,1-2.86-2.86V269.43a2.87,2.87,0,0,1,2.86-2.87h0a2.87,2.87,0,0,1,2.86,2.87Z"/><path class="cls-24" d="M431.18,263.66v10.58a10.84,10.84,0,0,1-.38,2.86,11,11,0,0,1-10.63,8.14H357.42a11,11,0,0,1-10.62-8.14,10.84,10.84,0,0,1-.38-2.86V263.66a11,11,0,0,1,11-11h62.75A11,11,0,0,1,431.18,263.66Z"/><path class="cls-25" d="M431.18,269v5.29a10.84,10.84,0,0,1-.38,2.86,11,11,0,0,1-10.63,8.14H357.42a11,11,0,0,1-10.62-8.14,10.84,10.84,0,0,1-.38-2.86V269Z"/><rect class="cls-24" x="131.75" y="252.65" width="268.78" height="122.57" rx="24.54"/><path class="cls-25" d="M376.32,277.19v73.49a24.54,24.54,0,0,1-24.54,24.54H156.29a24.54,24.54,0,0,1-24.54-24.54V277.19a24.55,24.55,0,0,1,24.54-24.54H351.78a24.54,24.54,0,0,1,24.54,24.54Z"/><path class="cls-26" d="M344.4,268.39v55.42c0,13.56-10.25,24.54-22.88,24.54H139.22a21.4,21.4,0,0,1-7.47-1.34V277.19a24.55,24.55,0,0,1,24.54-24.54H328.12a24.46,24.46,0,0,1,13.54,4.08A25.78,25.78,0,0,1,344.4,268.39Z"/><path class="cls-26" d="M454,370.65v9.15a11.07,11.07,0,0,1-11.12,11h-300a11.07,11.07,0,0,1-11.13-11v-9.15a10.62,10.62,0,0,1,.41-2.95,11.09,11.09,0,0,1,10.72-8.06h300A11.06,11.06,0,0,1,454,370.65Z"/><rect class="cls-24" x="360.02" y="359.64" width="94.02" height="31.17" rx="11.01"/><path class="cls-24" d="M431.16,366.05c-10.35-7.59-35.63-27.18-36.56-55l-11.7,55Z"/><path class="cls-24" d="M376.32,373.21a5.51,5.51,0,0,1-5.5,5.5H131.75v-8.06a10.62,10.62,0,0,1,.41-2.95H370.82A5.51,5.51,0,0,1,376.32,373.21Z"/><path class="cls-5" d="M733.8,359.37v15.38A6.69,6.69,0,0,1,733,378a6.78,6.78,0,0,1-5,3.46,7.3,7.3,0,0,1-.94.06H699.17a7.46,7.46,0,0,1-.95-.06,7,7,0,0,1-1.57-.42,6.8,6.8,0,0,1-4.27-6.31V359.37Z"/><path class="cls-5" d="M728.82,378.15a6.78,6.78,0,0,1-6.79,6.79H704.14a6.8,6.8,0,0,1-5.92-3.46c-.1-.19-.19-.37-.28-.56a6.79,6.79,0,0,1,6.2-9.56H722a6.82,6.82,0,0,1,6.79,6.79Z"/><path class="cls-22" d="M743.49,364.29c-1.75-1.75-4.06-1.89-6.37-1.89-1.09,0-2.21-.06-3.32,0a14.41,14.41,0,0,0-2.64.27c-3.11.67-5,3.71-5.17,6.72a11.6,11.6,0,0,0,.3,3.52,7.15,7.15,0,0,0,1.89,3.3,4.38,4.38,0,0,0,.45.41A7.32,7.32,0,0,0,733,378c.53,0,1.06,0,1.59,0a28.26,28.26,0,0,0,6-.23c3-.65,5-3.56,5.17-6.51a1.48,1.48,0,0,0,0-.21v-.17C745.67,368.4,745.39,366.19,743.49,364.29Zm-1.21,6.82c-.18,4.23-4.79,3.56-7.74,3.56h-.74a4.54,4.54,0,0,1-3.22-.9c-1.35-1.15-1.2-2.83-1.2-4.42,0-2.79,2.14-3.45,4.42-3.57,1.16-.06,2.36,0,3.32,0,1.44,0,2.79-.11,4,.89C742.44,367.84,742.28,369.52,742.28,371.11Z"/><path class="cls-16" d="M743.49,364.29c-1.75-1.75-4.06-1.89-6.37-1.89-1.09,0-2.21-.06-3.32,0v-3H722.21c0,1.28,0,2.56,0,3.81a17.39,17.39,0,0,1-1.42,8.18,6.67,6.67,0,0,1-1.53,2c-4,3.52-10.64.66-15,2.71,1.2.43,3.9-.09,3.88,1.82s-3.2,1.82-4.52,2.08c-1.92.4-3.84.68-5.76.91l-1.29.14a7,7,0,0,0,1.57.42,6.8,6.8,0,0,0,5.92,3.46H722A84.66,84.66,0,0,0,733,378c.53,0,1.06,0,1.59,0a28.26,28.26,0,0,0,6-.23c3-.65,5-3.56,5.17-6.51a1.48,1.48,0,0,0,0-.21v-.17C745.67,368.4,745.39,366.19,743.49,364.29Zm-1.21,6.82c-.18,4.23-4.79,3.56-7.74,3.56h-.74v-8.89c1.16-.06,2.36,0,3.32,0,1.44,0,2.79-.11,4,.89C742.44,367.84,742.28,369.52,742.28,371.11Z"/><path class="cls-5" d="M791.73,360v15.38a6.78,6.78,0,0,1-5.85,6.73,7.3,7.3,0,0,1-.94.06H757.1a7.46,7.46,0,0,1-1-.06,7,7,0,0,1-1.57-.42,6.8,6.8,0,0,1-4.27-6.31V360Z"/><path class="cls-5" d="M786.75,378.76a6.78,6.78,0,0,1-6.79,6.79H762.07a6.79,6.79,0,0,1-5.92-3.46c-.1-.18-.19-.37-.28-.56a6.84,6.84,0,0,1,1.4-7.57,6.77,6.77,0,0,1,4.8-2H780a6.83,6.83,0,0,1,6.6,5.22A6.88,6.88,0,0,1,786.75,378.76Z"/><path class="cls-22" d="M801.42,364.9c-1.75-1.74-4.06-1.89-6.37-1.89-1.09,0-2.21-.05-3.32,0a13.58,13.58,0,0,0-2.64.26c-3.11.67-5.05,3.72-5.17,6.73a11.65,11.65,0,0,0,.3,3.52,7.07,7.07,0,0,0,1.89,3.29,3.47,3.47,0,0,0,.45.41,7.34,7.34,0,0,0,4.33,1.45c.52,0,1.05,0,1.58,0a28.94,28.94,0,0,0,6-.23,7,7,0,0,0,5.17-6.51,1.62,1.62,0,0,0,0-.22v-.17C803.6,369,803.32,366.81,801.42,364.9Zm-1.21,6.82c-.18,4.23-4.79,3.56-7.74,3.56h-.74a4.54,4.54,0,0,1-3.22-.9c-1.35-1.14-1.2-2.83-1.2-4.41,0-2.8,2.15-3.45,4.42-3.58,1.16-.06,2.36,0,3.32,0,1.44,0,2.79-.11,4,.89C800.37,368.45,800.21,370.13,800.21,371.72Z"/><path class="cls-16" d="M801.42,364.9c-1.75-1.74-4.06-1.89-6.37-1.89-1.09,0-2.21-.05-3.32,0v-3H780.14c0,1.28,0,2.56.05,3.81a17.37,17.37,0,0,1-1.42,8.18,6.67,6.67,0,0,1-1.53,2c-4,3.52-10.64.66-15,2.72,1.2.43,3.9-.09,3.88,1.81s-3.2,1.82-4.52,2.09c-1.92.39-3.84.68-5.76.9l-1.29.14a7,7,0,0,0,1.57.42,6.79,6.79,0,0,0,5.92,3.46H780a87.29,87.29,0,0,0,10.93-6.91c.52,0,1.05,0,1.58,0a28.94,28.94,0,0,0,6-.23,7,7,0,0,0,5.17-6.51,1.62,1.62,0,0,0,0-.22v-.17C803.6,369,803.32,366.81,801.42,364.9Zm-1.21,6.82c-.18,4.23-4.79,3.56-7.74,3.56h-.74v-8.89c1.16-.06,2.36,0,3.32,0,1.44,0,2.79-.11,4,.89C800.37,368.45,800.21,370.13,800.21,371.72Z"/><path class="cls-26" d="M643.66,383.67a5.38,5.38,0,0,0-.19,1.4,5.08,5.08,0,0,0,5.08,5.09H829.31a5.09,5.09,0,0,0,5.09-5.09,5,5,0,0,0-.2-1.4Z"/><path class="cls-27" d="M838.05,383.48a1.16,1.16,0,0,0-1.16-1.16H641a1.16,1.16,0,0,0-1.16,1.16h0a1.15,1.15,0,0,0,1.16,1.15H836.89a1.15,1.15,0,0,0,1.16-1.15Z"/><path class="cls-28" d="M691.8,79.87H628.18c-.35-12.88-2-23.51,9.2-32.29,3.85-3,7.64-5.8,11-8.8,5.08-4.48,9.29-9.47,11.5-16.56,0,.12.05.25.07.38,0-.13,0-.26.08-.38C663.74,34.05,673,40,682.6,47.58,693.77,56.36,692.16,67,691.8,79.87Z"/><path class="cls-29" d="M668.66,79.87H628.18c-.35-12.88-2-23.51,9.2-32.29,3.85-3,7.64-5.8,11-8.8,3.41,3,7.2,5.78,11,8.8C670.63,56.36,669,67,668.66,79.87Z"/><path class="cls-28" d="M666.49,22.64a3,3,0,0,1-3,3h-6.9a3,3,0,0,1-3-3h0a3,3,0,0,1,3-3h6.9a3,3,0,0,1,3,3Z"/><rect class="cls-28" x="658.34" width="3.3" height="36.61"/></g></g></g></svg>