<svg xmlns="http://www.w3.org/2000/svg" viewBox="0 0 1200 1000"><defs><style>.cls-1{isolation:isolate;}.cls-2{fill:#fff;}.cls-3{fill:#909cb2;}.cls-4{fill:#422e28;}.cls-5{fill:#2e3e49;}.cls-6{fill:#1f2c51;}.cls-7{fill:#ffa26e;}.cls-8{fill:#32427c;}.cls-9{fill:#e58d5c;}.cls-10{fill:#8bd2d8;}.cls-11{fill:#54a1a3;}.cls-12{fill:#e03b3b;}.cls-13{fill:#d87b4c;}.cls-14{fill:#5b3f37;}.cls-15{fill:#5b4e41;}.cls-16{fill:#f9f4f2;}.cls-17{fill:#597a82;}.cls-18{fill:#272824;}.cls-19{fill:#7a574e;}.cls-20{fill:#773703;}.cls-21{fill:#b26632;}.cls-22{fill:#ddcec7;}.cls-23{fill:#352615;}.cls-24{fill:#dbd56a;}.cls-25{fill:#9b976a;}.cls-26{fill:#e5e593;}.cls-27{fill:#fffdae;}.cls-28{fill:#5b413b;}.cls-29{fill:#876861;mix-blend-mode:screen;opacity:0.5;}</style></defs><g class="cls-1"><g id="Layer_1" data-name="Layer 1"><rect class="cls-2" width="1200" height="1000"/><rect class="cls-3" x="75.74" y="854.56" width="1048.51" height="55.56"/><rect class="cls-4" x="241.06" y="131.29" width="712.6" height="635.31"/><rect class="cls-3" x="279.47" y="164.72" width="209.8" height="237.22"/><rect class="cls-5" x="285.45" y="170.65" width="195.61" height="225.97"/><path class="cls-2" d="M366.74,188a2.55,2.55,0,0,1,2.18,1,3.08,3.08,0,0,1,.61,1.94,10.27,10.27,0,0,1-1.37,4.68,16.88,16.88,0,0,1-3,4.06c-.79.77-1.41,1.16-1.86,1.16a1.21,1.21,0,0,1-1.1-1.16c0-.5.43-1.06,1.29-1.69a12.4,12.4,0,0,0,2.89-3,7.51,7.51,0,0,0,1.59-3.94,1.42,1.42,0,0,0-.29-1,1.09,1.09,0,0,0-.85-.32c-.78,0-1.88.57-3.3,1.69a34.47,34.47,0,0,0-5.14,5.18,35.71,35.71,0,0,0-5.24,8.21,18.23,18.23,0,0,0-1.86,7.15,3.67,3.67,0,0,0,.82,2.41,2.79,2.79,0,0,0,2.22,1.12q2.28,0,5.75-3.56a29.39,29.39,0,0,0,2.52-3.13,15.47,15.47,0,0,0,1.25-1.86c.21-.4.45-.61.74-.61s.46.15.46.44c0,.64-.79,2.06-2.37,4.28a19.93,19.93,0,0,1-4.33,4.52,8.65,8.65,0,0,1-5,2,4.25,4.25,0,0,1-3.83-2.22,6.09,6.09,0,0,1-.87-3.24q0-4.56,4.31-11.52a43,43,0,0,1,7.76-9.54C363.05,189,365.06,188,366.74,188Z"/><path class="cls-2" d="M374,201.53c1.16,0,1.74.7,1.74,2.11,0,1.88-.87,4.25-2.6,7.13q-2.83,4.66-5.48,4.67a1.89,1.89,0,0,1-1.8-1.14,2.93,2.93,0,0,1-.29-1.38,11.74,11.74,0,0,1,1.86-5.87,14,14,0,0,1,4.08-4.57A4.46,4.46,0,0,1,374,201.53Zm-2.2,8c-.35-.28-.52-.5-.52-.66s.22-.42.67-.93c1.27-1.42,1.91-2.57,1.91-3.44a.62.62,0,0,0-.11-.34.56.56,0,0,0-.53-.32c-.45,0-1.11.44-2,1.31a13.26,13.26,0,0,0-2.58,3.49,8,8,0,0,0-1,3.41,1,1,0,0,0,.19.63.83.83,0,0,0,.7.38c.67,0,1.4-.51,2.17-1.52a6.39,6.39,0,0,0,.83-1.31A3.31,3.31,0,0,0,371.75,209.52Z"/><path class="cls-2" d="M379.32,205.19a73.75,73.75,0,0,1,6.33-11.36,33.7,33.7,0,0,1,3.46-4.31,2.59,2.59,0,0,1,1.63-1,.63.63,0,0,1,.45.17.68.68,0,0,1,.29.57,2.52,2.52,0,0,1-.74,1.33,62.09,62.09,0,0,0-8.46,12.77,16.18,16.18,0,0,1,4.72-1.29,2.55,2.55,0,0,1,1.61.49,1.45,1.45,0,0,1,.65,1.16,1,1,0,0,1-.23.61,1,1,0,0,1-.83.4,3.78,3.78,0,0,1-1.41-.59A1.69,1.69,0,0,0,386,204,9.88,9.88,0,0,0,381,206a3.69,3.69,0,0,1,1.8,1.56,7.26,7.26,0,0,1,.72,3.39,23.19,23.19,0,0,1-3.09,10.93,17.15,17.15,0,0,1-2.58,3.72,3.83,3.83,0,0,1-2.73,1.37,2,2,0,0,1-1.71-1,4.36,4.36,0,0,1-.53-2.31q0-3.12,2.37-9.41c.2-.5.76-1.81,1.69-3.91.24-.52.47-1.08.7-1.67a1.22,1.22,0,0,1-.32,0q-.57,0-.57-.63C376.7,207.29,377.58,206.34,379.32,205.19ZM380,208a76.18,76.18,0,0,0-3.13,7.23,23.5,23.5,0,0,0-2,7.9,1.79,1.79,0,0,0,.28,1,.85.85,0,0,0,.7.42q1.31,0,3.44-4.4a20.55,20.55,0,0,0,2.41-9,3.88,3.88,0,0,0-.61-2.39A3.17,3.17,0,0,0,380,208Z"/><path class="cls-2" d="M390.38,205.19a74.65,74.65,0,0,1,6.32-11.36,34.49,34.49,0,0,1,3.47-4.31,2.59,2.59,0,0,1,1.63-1,.6.6,0,0,1,.44.17.66.66,0,0,1,.3.57,2.52,2.52,0,0,1-.74,1.33,61.69,61.69,0,0,0-8.46,12.77,16.18,16.18,0,0,1,4.72-1.29,2.5,2.5,0,0,1,1.6.49,1.44,1.44,0,0,1,.66,1.16,1,1,0,0,1-.23.61,1,1,0,0,1-.83.4,3.78,3.78,0,0,1-1.41-.59,1.73,1.73,0,0,0-.77-.15A9.88,9.88,0,0,0,392,206a3.69,3.69,0,0,1,1.8,1.56,7.26,7.26,0,0,1,.72,3.39,23.19,23.19,0,0,1-3.09,10.93,17.15,17.15,0,0,1-2.58,3.72,3.83,3.83,0,0,1-2.73,1.37,2,2,0,0,1-1.71-1,4.36,4.36,0,0,1-.53-2.31q0-3.12,2.37-9.41c.2-.5.76-1.81,1.69-3.91.24-.52.47-1.08.7-1.67a1.22,1.22,0,0,1-.32,0q-.57,0-.57-.63C387.76,207.29,388.63,206.34,390.38,205.19Zm.72,2.77a76.18,76.18,0,0,0-3.13,7.23,23.5,23.5,0,0,0-2,7.9,1.71,1.71,0,0,0,.28,1,.85.85,0,0,0,.7.42q1.31,0,3.44-4.4a20.55,20.55,0,0,0,2.41-9,3.88,3.88,0,0,0-.61-2.39A3.4,3.4,0,0,0,391.1,208Z"/><path class="cls-2" d="M399.6,211.11v.38a1.42,1.42,0,0,0,.23.8,2,2,0,0,0,1.74.78q2.64,0,6.11-4.06c.41-.46.75-.7,1-.7a.61.61,0,0,1,.55.55c0,.55-.67,1.48-2,2.8a15.35,15.35,0,0,1-3.38,2.51,7.06,7.06,0,0,1-3.34,1,3,3,0,0,1-2.49-1.09,3.22,3.22,0,0,1-.62-2.08q0-3.57,3.36-7,2.73-2.79,4.76-2.79a1.65,1.65,0,0,1,1,.34,1.44,1.44,0,0,1,.55,1.16,5.45,5.45,0,0,1-1,2.75A11,11,0,0,1,399.6,211.11Zm.47-1.65a8.34,8.34,0,0,0,2.32-1.15,9.46,9.46,0,0,0,2.35-2.57,1.82,1.82,0,0,0,.32-.91c0-.29-.14-.43-.4-.43a3,3,0,0,0-1.57.83A10.77,10.77,0,0,0,400.07,209.46Z"/><path class="cls-2" d="M411.48,211.11v.38a1.35,1.35,0,0,0,.24.8,1.94,1.94,0,0,0,1.73.78q2.64,0,6.11-4.06c.41-.46.76-.7,1-.7a.55.55,0,0,1,.42.24.51.51,0,0,1,.13.31c0,.55-.68,1.48-2,2.8a15.65,15.65,0,0,1-3.39,2.51,7,7,0,0,1-3.34,1,3.07,3.07,0,0,1-2.49-1.09,3.22,3.22,0,0,1-.61-2.08q0-3.57,3.36-7c1.82-1.86,3.4-2.79,4.76-2.79a1.65,1.65,0,0,1,1,.34,1.41,1.41,0,0,1,.55,1.16,5.45,5.45,0,0,1-1,2.75A11,11,0,0,1,411.48,211.11Zm.47-1.65a8.41,8.41,0,0,0,2.33-1.15,9.58,9.58,0,0,0,2.34-2.57,1.82,1.82,0,0,0,.32-.91c0-.29-.13-.43-.4-.43a3,3,0,0,0-1.57.83A10.77,10.77,0,0,0,412,209.46Z"/><path class="cls-2" d="M336.81,257.13a4.62,4.62,0,0,0-5.11-1.93v-.08c0-.5,0-1-.06-1.56l0-.22H307l0,.22c-.05.54-.07,1.05-.07,1.56,0,5.38,2.41,10.33,6.29,13a1.09,1.09,0,0,0,0,.18,3.38,3.38,0,0,0,3.38,3.38H322a3.38,3.38,0,0,0,3.39-3.38c0-.06,0-.12,0-.18a13.23,13.23,0,0,0,3.29-3.26,4.87,4.87,0,0,0,1.7.3,5.89,5.89,0,0,0,2.92-.8l1.19-.69a5.71,5.71,0,0,0,2.55-3A4.18,4.18,0,0,0,336.81,257.13ZM325,267.78a4.83,4.83,0,0,0-.1.5,2.9,2.9,0,0,1-2.9,2.9h-5.46a2.9,2.9,0,0,1-2.9-2.9c0-.09,0-.18,0-.28l-.11-.22c-3.82-2.54-6.19-7.39-6.19-12.66,0-.43,0-.85.05-1.29h23.72c0,.45.05.87.05,1.29v.52C331.06,260.71,328.72,265.32,325,267.78Zm11.34-7.34a5,5,0,0,1-2.22,2.58l-1.19.69a4.84,4.84,0,0,1-3.84.51,16.85,16.85,0,0,0,2.55-8.27,3.92,3.92,0,0,1,4.5,1.54A3.47,3.47,0,0,1,336.38,260.44Z"/><path class="cls-2" d="M316.32,251.24a11.79,11.79,0,0,0-.49-1.49c-.32-.81.57-1.48,1.06-2a3.12,3.12,0,0,0,.76-3.15.15.15,0,0,0-.29.08c.59,2.08-1.05,2.71-1.84,4.29-.34.67.36,1.72.51,2.37,0,.19.33.1.29-.09Z"/><path class="cls-2" d="M318.62,251.13a10.82,10.82,0,0,0-.49-1.49c-.32-.82.57-1.48,1.06-2a3.14,3.14,0,0,0,.76-3.15.15.15,0,0,0-.29.08c.59,2.08-1.05,2.71-1.84,4.28-.34.67.36,1.73.51,2.37,0,.19.33.11.29-.08Z"/><path class="cls-2" d="M321,251.13a9.62,9.62,0,0,0-.49-1.49c-.32-.82.57-1.48,1.06-2a3.1,3.1,0,0,0,.76-3.15.15.15,0,0,0-.29.08c.59,2.08-1,2.71-1.84,4.28-.33.67.36,1.73.51,2.37,0,.19.34.11.29-.08Z"/><rect class="cls-2" x="346.37" y="251.86" width="32.82" height="1.37"/><rect class="cls-2" x="346.37" y="262.8" width="32.82" height="1.37"/><rect class="cls-2" x="346.37" y="258.03" width="56.98" height="1.37"/><path class="cls-2" d="M423.68,263.87c-1.34-3.55-7-7.21-2-10.71,3.92-2.75,9.39-3,14-2.69s8.54,1.74,11.15,5.67c3,4.49.18,8.83-4.86,9.44a20.64,20.64,0,0,1-12-2.48c-1.81-1-3.87-2.46-4.63-4.47-1-2.63,3-3.39,4.67-3.67a13.89,13.89,0,0,1,9.45,1.62c2.45,1.43,1.13,3.15-1.16,3.66s-4.82-.68-5.2-3c-.27.37-.55.73-.82,1.09,1.55-.07,3.1.08,4.65-.05,1.08-.1,1.09-1.81,0-1.71-1.55.13-3.1,0-4.65,0a.87.87,0,0,0-.83,1.08c.61,3.78,5,5,8.23,4,3.47-1.09,3.73-4.28,1-6.28-3-2.2-6.87-2.52-10.4-2.15-3.28.36-7.55,1.76-6.62,5.87.85,3.81,6.24,6.18,9.54,7.21,4.07,1.27,9.34,1.89,13.17-.36,3.63-2.13,4.07-6.21,2.4-9.74-1.93-4.05-5.88-6.21-10.09-7-5.93-1.15-12.66-.67-17.91,2.52a5.82,5.82,0,0,0-2.82,5.8c.5,2.82,3.08,4.26,4,6.83.38,1,2,.58,1.65-.45Z"/><path class="cls-2" d="M336,303.22a4.62,4.62,0,0,0-5.11-1.93s0-.05,0-.08c0-.5,0-1-.07-1.56l0-.22H306.2l0,.22c0,.54-.07,1.05-.07,1.56,0,5.38,2.41,10.33,6.29,13,0,.06,0,.12,0,.18a3.38,3.38,0,0,0,3.38,3.38h5.46a3.38,3.38,0,0,0,3.39-3.38c0-.06,0-.12,0-.18a13.23,13.23,0,0,0,3.29-3.26,4.87,4.87,0,0,0,1.7.3,5.87,5.87,0,0,0,2.92-.8l1.19-.69a5.71,5.71,0,0,0,2.55-3A4.18,4.18,0,0,0,336,303.22Zm-11.77,10.65a4.83,4.83,0,0,0-.1.5,2.9,2.9,0,0,1-2.9,2.9h-5.46a2.9,2.9,0,0,1-2.89-2.9,2.72,2.72,0,0,1,0-.28l-.11-.22c-3.81-2.54-6.18-7.39-6.18-12.66,0-.43,0-.85,0-1.3h23.71c0,.46.05.88.05,1.3v.52C330.25,306.8,327.92,311.41,324.23,313.87Zm11.34-7.34a4.92,4.92,0,0,1-2.22,2.58l-1.19.69a4.84,4.84,0,0,1-3.84.51,16.89,16.89,0,0,0,2.56-8.27,3.91,3.91,0,0,1,4.49,1.54A3.47,3.47,0,0,1,335.57,306.53Z"/><path class="cls-2" d="M315.51,297.33a10.38,10.38,0,0,0-.49-1.49c-.32-.81.57-1.48,1.06-2a3.1,3.1,0,0,0,.76-3.15.15.15,0,0,0-.29.08c.59,2.08-1,2.71-1.84,4.29-.34.67.36,1.72.51,2.36,0,.19.34.11.29-.08Z"/><path class="cls-2" d="M317.81,297.22a9.62,9.62,0,0,0-.49-1.49c-.32-.82.57-1.48,1.06-2a3.12,3.12,0,0,0,.76-3.15.15.15,0,0,0-.29.08c.59,2.08-1,2.71-1.84,4.28-.34.67.36,1.73.51,2.37,0,.19.33.11.29-.08Z"/><path class="cls-2" d="M320.22,297.22a9.62,9.62,0,0,0-.49-1.49c-.32-.82.57-1.48,1.07-2a3.12,3.12,0,0,0,.75-3.15.15.15,0,0,0-.29.08c.59,2.08-1,2.71-1.83,4.28-.34.67.35,1.73.5,2.37a.15.15,0,0,0,.29-.08Z"/><rect class="cls-2" x="346.37" y="297.95" width="24.66" height="1.37"/><rect class="cls-2" x="346.37" y="308.89" width="24.66" height="1.37"/><rect class="cls-2" x="346.37" y="304.12" width="33.28" height="1.37"/><path class="cls-2" d="M421.17,292.78l.36-.08c-.14-.35-.29-.69-.44-1-.92.66-2.34.82-3.35,1.39-1.31.74-2.1,2.67-2.62,4-1.39,3.48,1.8,4.41,4.58,4.62,1.74.13,3.49,0,5.23.13,2.32.18,3.75,1.51,6.19.72a14.54,14.54,0,0,0,2.77-1.62c1.65-1,3.84-.55,5.59-.17a21.23,21.23,0,0,0,7.26.8c2.34-.26,6.43-.24,7.79-2.61,1.63-2.82-.94-5.09-3.43-5.9a22.61,22.61,0,0,0-5.18-.78c-3-.22-6-.51-9-.68-3.51-.19-7-.28-10.52-.32a20.53,20.53,0,0,0-5.49.46.57.57,0,0,0,.3,1.1c3.62-.9,7.62-.4,11.33-.29,4.64.15,9.25.56,13.88.91a23.64,23.64,0,0,1,4.42.69c1.77.49,4.2,2.38,2.62,4.39s-5.81,1.83-8.08,2c-3.89.37-7.45-2.25-11.37-.93-2.22.75-3.27,2.57-6,1.95a20,20,0,0,0-3.83-.94c-2.11-.1-8.89.86-8.13-2.73a6.4,6.4,0,0,1,2.9-4.15,19,19,0,0,0,2.72-1.07.57.57,0,0,0-.44-1l-.36.08A.57.57,0,0,0,421.17,292.78Z"/><path class="cls-2" d="M419.08,301.35c.31,8.62,6.52,15.51,15.34,15.62,3.91,0,8.62.23,11.75-2.47s3.11-8.8,3.23-12.7a.57.57,0,0,0-1.14,0c-.12,3.76-.05,8.37-2.49,11.47s-7.36,2.42-10.74,2.55c-8.43.32-14.51-6.29-14.81-14.47a.57.57,0,0,0-1.14,0Z"/><path class="cls-2" d="M425.49,302.11c-.72,2.29,1.1,5.87,2,7.88s2.41,6.16,5,6.72c.72.16,1-.94.3-1.1-2.25-.48-3.7-4.68-4.47-6.52-.69-1.64-2.31-4.84-1.74-6.68.22-.7-.88-1-1.09-.3Z"/><path class="cls-2" d="M431.41,301.42c-.54,1.84.52,3.84,1.22,5.49a22.37,22.37,0,0,1,1.5,9.25.57.57,0,0,0,1.13,0c0-2.48.15-5.05-.67-7.43-.69-2-2.73-4.81-2.08-7a.57.57,0,0,0-1.1-.31Z"/><path class="cls-2" d="M437.48,300.61c3.56,4.06,2.46,10.52,1.77,15.4-.1.72,1,1,1.1.3.75-5.35,1.82-12.07-2.06-16.5-.49-.56-1.29.25-.81.8Z"/><path class="cls-2" d="M444.5,301.92c.62.05.14,5.46.09,6a15.46,15.46,0,0,1-2.7,7.2c-.39.63.6,1.2,1,.58a18.22,18.22,0,0,0,3-9.21c.08-1.24.67-5.52-1.35-5.7-.74-.07-.73,1.07,0,1.14Z"/><path class="cls-2" d="M420.74,297.51a5.3,5.3,0,0,1,1.34-.51c.72-.16.42-1.26-.3-1.1a6.8,6.8,0,0,0-1.62.63c-.66.32-.08,1.31.58,1Z"/><path class="cls-2" d="M427.57,295.8a4.52,4.52,0,0,0,1.73.74c.72.15,1-.94.3-1.1a3.78,3.78,0,0,1-1.46-.62.55.55,0,0,0-.77.2.58.58,0,0,0,.2.78Z"/><path class="cls-2" d="M436,296.2l1.59.34c.72.15,1-1,.3-1.1l-1.59-.34c-.72-.14-1,.95-.3,1.1Z"/><path class="cls-2" d="M427.63,299.64a10.82,10.82,0,0,0,2-.14c.73-.13.42-1.23-.3-1.09a9.31,9.31,0,0,1-1.67.09.57.57,0,0,0,0,1.14Z"/><path class="cls-2" d="M444.8,297.57a7.47,7.47,0,0,0,1.63.13.57.57,0,0,0,0-1.14,6,6,0,0,1-1.33-.09c-.71-.17-1,.93-.3,1.1Z"/><path class="cls-2" d="M449.05,296a.48.48,0,0,1-.2,0l-.2-.21,0-.05a.58.58,0,0,0,.7.4.6.6,0,0,0,.4-.71.7.7,0,0,0-.67-.53.57.57,0,0,0,0,1.14Z"/><path class="cls-2" d="M335.2,350.12a4.61,4.61,0,0,0-5.11-1.93v-.08c0-.5,0-1-.07-1.56l0-.22H305.39l0,.22c0,.54-.06,1.05-.06,1.56,0,5.37,2.4,10.33,6.28,13,0,.06,0,.12,0,.18a3.38,3.38,0,0,0,3.39,3.38h5.46a3.38,3.38,0,0,0,3.38-3.38,1.09,1.09,0,0,0,0-.18,13.06,13.06,0,0,0,3.29-3.26,4.91,4.91,0,0,0,1.7.3,5.84,5.84,0,0,0,2.92-.8l1.2-.69a5.73,5.73,0,0,0,2.54-3A4.21,4.21,0,0,0,335.2,350.12Zm-11.78,10.65s-.09.41-.09.5a2.9,2.9,0,0,1-2.9,2.9H315a2.9,2.9,0,0,1-2.9-2.9,2.72,2.72,0,0,1,0-.28l-.1-.22c-3.82-2.54-6.19-7.39-6.19-12.66,0-.43,0-.85,0-1.3h23.72c0,.46,0,.88,0,1.3v.52C329.45,353.69,327.11,358.31,323.42,360.77Zm11.35-7.35a5,5,0,0,1-2.23,2.59l-1.19.69a4.83,4.83,0,0,1-3.84.51,16.79,16.79,0,0,0,2.56-8.27,3.93,3.93,0,0,1,4.5,1.54A3.45,3.45,0,0,1,334.77,353.42Z"/><path class="cls-2" d="M314.7,344.23a10.38,10.38,0,0,0-.49-1.49c-.32-.81.57-1.48,1.07-2a3.11,3.11,0,0,0,.75-3.15.15.15,0,0,0-.29.08c.59,2.08-1,2.71-1.83,4.28-.34.68.35,1.73.5,2.37a.15.15,0,0,0,.29-.08Z"/><path class="cls-2" d="M317,344.12a9.62,9.62,0,0,0-.49-1.49c-.32-.82.57-1.48,1.06-2a3.1,3.1,0,0,0,.76-3.15.15.15,0,0,0-.29.08c.59,2.08-1,2.71-1.83,4.28-.34.67.35,1.73.5,2.37a.15.15,0,0,0,.29-.08Z"/><path class="cls-2" d="M319.42,344.12a10.82,10.82,0,0,0-.49-1.49c-.33-.82.57-1.48,1.06-2a3.15,3.15,0,0,0,.76-3.15.15.15,0,0,0-.29.08c.59,2.08-1,2.71-1.84,4.28-.34.67.35,1.73.5,2.37a.16.16,0,0,0,.3-.08Z"/><rect class="cls-2" x="346.37" y="344.85" width="32.82" height="1.37"/><rect class="cls-2" x="346.37" y="355.79" width="32.82" height="1.37"/><rect class="cls-2" x="346.37" y="351.02" width="67.46" height="1.37"/><path class="cls-2" d="M426.34,348.08c-3.17.87-6.45,2.84-7.16,6.3-.51,2.47,1.21,4.23,3.54,4.54a10.13,10.13,0,0,0,5.28-1.29c1.45-.67,2.66-1.72,4.21-2.21,1.89-.6,4.12.48,5.91,1,2.36.74,4.89.23,7.26-.24a14.11,14.11,0,0,1,8.41.39c2.88,1.11,7.82,3.68,10.11.13,1.86-2.9-1.29-5.57-3.42-7.17-7.81-5.83-17.51-8.25-26.9-5.19a24.43,24.43,0,0,0-7.49,3.85c-.58.45.24,1.25.81.8,4.52-3.56,11.19-5.2,17-4.88,5.11.27,9.73,2.44,14,5.08a19.7,19.7,0,0,1,4.39,3.47c2.2,2.43.16,5.06-2.85,4.62a27.69,27.69,0,0,1-5.85-2,12,12,0,0,0-5.85-.68c-2.49.29-4.86,1-7.4,1.05s-5.05-2-7.78-1.49c-3.29.61-8.46,6-11.74,2.7-1.1-1.09-.48-2.93.17-4.06,1.18-2,3.5-3.08,5.65-3.66A.57.57,0,0,0,426.34,348.08Z"/><path class="cls-2" d="M434.33,354.67a19.72,19.72,0,0,0-2.91-2.62c-1.82-1.43-3.53-2.79-3.83-4.47l.45-.08c.27,1.51,1.91,2.82,3.66,4.2a19.51,19.51,0,0,1,3,2.68Z"/><path class="cls-2" d="M452.73,356.28a.29.29,0,0,1-.28-.18c-.07-.22.1-.34.71-.77a7.38,7.38,0,0,0,2.1-1.89,5.41,5.41,0,0,0,.62-3.72,7.39,7.39,0,0,0-2.7-3.12c-.44-.35-.86-.68-1.21-1l.32-.33c.33.33.74.65,1.17,1a7.51,7.51,0,0,1,2.85,3.33,5.73,5.73,0,0,1-.65,4.08,7.77,7.77,0,0,1-2.23,2,5.94,5.94,0,0,0-.56.42.19.19,0,0,0,0-.19.2.2,0,0,0-.15-.11v.46Z"/><path class="cls-6" d="M730.49,855.19l-6,.45-4.72,11c2.93,2.13,18.23,5.2,27.78,3.71C744.65,868.92,732.66,856.62,730.49,855.19Z"/><path class="cls-7" d="M729.05,848.56l-6.37-.74c.51,2.19,2.28,16.83,6.75,13.17C733,858.06,728.49,852,729.05,848.56Z"/><path class="cls-6" d="M630.7,855.83l5.85,1.47,2.78,11.64c-3.25,1.6-12.74,3.1-21.9,0C620.51,868,628.32,856.87,630.7,855.83Z"/><path class="cls-7" d="M632.07,847.85l5.31-.52c-.26,2.23-.33,17-5.2,13.85C628.29,858.68,631.86,851.41,632.07,847.85Z"/><path class="cls-8" d="M644,695.2c-4.37,26.47,16.84,22.5,15.66,49-.95,21.58-15.46,55.85-22.33,108.52l-7.52-.16a395.92,395.92,0,0,0-2.33-52.48c-3.39-31.15-9.21-55.64-9.82-85.52-.6-29.52-10.5-53.67-14.35-82.56-2.23-16.75-14.6-88.47-2.44-112.19L663.74,541c.43,12.23-.8,28.62-2.85,46.37C656.29,627.09,647.56,673.58,644,695.2Z"/><path class="cls-6" d="M659.65,744.18c-.95,21.58-15.46,55.85-22.33,108.52l-7.52-.16a395.92,395.92,0,0,0-2.33-52.48c9.52-6.34,17-13.53,21.51-25.1,4.36-11.25,4.77-23.77,2.85-35.36-1.2-7.31-10.48-30-20.4-19.81,1.4-4.39,3.09-8.52,4.39-12.8-3.67.17-7.36,1.16-11.08,1.69,16.19-18.5,5-123.9-1.63-155.77-1.32-6.36,36,6.54,35.82,0l2,34.46c-4.6,39.72-13.33,86.21-16.9,107.83C639.62,721.67,660.83,717.7,659.65,744.18Z"/><path class="cls-8" d="M730.08,851.72h-6.94c-5.33-13.43-11.56-29.38-17.46-44.68-8.49-22-16.31-42.66-19.82-52.42-9-24.94,6.64-33.79-5.38-57.78-11.55-23-35.43-88.19-51.33-131.52-4.83-13.15-31.92-13.13-33.57-21.4,6.07-1.2,29.26-16.22,35.22-17.85,10.92-3,19.28-7.9,30.39-10.08,5.27-1,23.71,14.58,24.84,23.23,4.16,15.64,12.11,78.36,20.52,126.83,4.3,24.79,8.73,45.85,12.83,55C738.93,764.39,719.64,808.55,730.08,851.72Z"/><path class="cls-6" d="M730.08,851.72h-6.94c-5.33-13.43-11.56-29.38-17.46-44.68,5.35-1.47,10.46-3.6,14.51-7.73,7.19-7.34,5.43-18.48,4.47-27.86-1.81-17.57-8.46-37.29-17.37-53-1.48.18-3.53-.54-5-.22,2.22-2.15,4.94-4.07,7.19-5.89-2.86-1.81-7.66-2.6-11.3-2.77,9.7-4.83,7.38-21.3,7.9-31.68q.28-5.94.46-11.89c4.3,24.79,8.73,45.85,12.83,55C738.93,764.39,719.64,808.55,730.08,851.72Z"/><path class="cls-9" d="M451.45,393.7c55.95,2.62,107.76-15.33,108.08,1.06-.63,6.92-3.16,19.31-7.93,22.75-11.09,8-32,9.23-47,7.71-10-1-33.4-6.48-53.19-11.42C451.15,407.12,451.4,400.4,451.45,393.7Z"/><path class="cls-10" d="M602.74,336.46c-17.6,16.27-50.37,42-61.19,50.29,2.93,4.4,16.24,38.19,16.46,39,3.22-1.52,6.63-3.32,10.17-5.39,20.67-12.07,45.72-32.77,63.37-53.56Z"/><path class="cls-10" d="M575.48,419.6c-2.91,2.82-15.11,11.39-27.06,11.82-3.7-15.91-10.49-34-16.22-49.19l1.84.13,11.73.83a31.82,31.82,0,0,1,8,4.6C563.75,395.63,570.19,409,575.48,419.6Z"/><path class="cls-11" d="M575.48,419.6c-2.91,2.82-15.11,11.39-27.06,11.82-3.7-15.91-10.49-34-16.22-49.19l1.84.13c3.09,4.92,6.11,9.72,9.07,14.76,3.6,6.14,8,11.92,10.3,18.62,1.33-2.77.17-9.84-.47-12.82.93,2.58,3.73,6,5.29,8.37.8-4.54-1.26-10.94-2.13-15.53a59.3,59.3,0,0,0-2.36-8C563.75,395.63,570.19,409,575.48,419.6Z"/><path class="cls-10" d="M698.1,426.19h0c-4.35,25.6-9.33,56-12.79,80.26a.77.77,0,0,0,0,.15c-2.57,18-4.3,32.59-4.3,39.29q-3.5.45-7,1c-13.53,1.91-27,4.12-40.69,4.72-5.26.23-39.87.11-42.16-2.86a65.81,65.81,0,0,0,1.67-8.74c2.86-20.69,4.08-63.47,1.54-88.8-.33-3.35-.73-6.39-1.2-9-.87-4.85-14.42-83.76-6.82-91.87a68.29,68.29,0,0,1,9.28-9.19A90.83,90.83,0,0,1,607.2,333c11.48-6.82,24.2-11.53,35.46-15.56.77-.29,2.22-.21,4.12-.55a94.82,94.82,0,0,1,17.87-1.31,100.57,100.57,0,0,1,12.28,1c12,1.7,22.17,5.7,24.52,12.25,0,0,.71,3.84,1.66,9.28a.68.68,0,0,1,0,.15C704,344.22,701.32,383,698.1,426.19Z"/><path class="cls-11" d="M591.17,548.71c2.29,3,36.9,3.09,42.16,2.86,16-.71,38.34-3.51,54.2-5.57-2.11-23.19,3-75.13,10.57-119.8h0c3.22-43.18,5.91-82,5-88a.68.68,0,0,0,0-.15c-4.24,8-8.46,16.36-11.12,22.85-3.57,8.72-16.22,73.46-19.07,86.73-5,23.31-10,45.9-8.3,69.71.19,2.75,1.06,5.54,1.38,8-5.44,1.38-11.62,1.9-17.29,2.51,4.14,2.13,11,3.82,15,7.06-34,16.12-69.54,5.12-70.84,5A65.94,65.94,0,0,1,591.17,548.71Z"/><path class="cls-12" d="M684.53,509.82,691,505c-11.63-.57-17,.39-17.47-11.05-.37-8.14.58-144.62,3.4-177.37a100.57,100.57,0,0,0-12.28-1c-4.17,25.34-6.36,60.47-9.29,84.41-16.5.89-32.29-.89-48.87-.64.26-12.9-2.27-45.26.71-66.35a90.83,90.83,0,0,0-11.56,8.06c-1.12,15.73-1.26,37.82-1.26,51.09,0,19.67.21,39.35,0,59v.58c-.55,50.55-12.44,244.87-12.5,259.86,34.55,1.84,83.85-.18,118.22-2C701,702.42,679.23,511.18,684.53,509.82Z"/><polygon class="cls-7" points="664.15 316.03 628.34 370.85 617.19 341.65 616.86 331.89 616.75 328.77 616.31 315.44 615.79 313.12 615.34 311.02 614.55 307.3 614.21 305.6 613.38 301.44 612.94 299.18 612.6 297.5 606.49 266.48 641.54 254.74 646.59 270.32 650.26 281.67 651.16 284.46 654.86 295.86 656.18 299.93 656.68 301.47 660.2 312.33 660.56 312.67 664.15 316.03"/><polygon class="cls-11" points="635.6 345.69 628.34 370.85 647.63 343.88 635.6 345.69"/><polygon class="cls-10" points="660.88 311.29 675.65 313.7 667.09 351.19 635.07 346.4 660.88 311.29"/><polygon class="cls-11" points="617.75 342.54 628.38 371.12 608.92 351.51 617.75 342.54"/><polygon class="cls-10" points="616.77 326.38 604.88 331.33 600.62 358.45 620.02 348.03 616.77 326.38"/><path class="cls-7" d="M546.13,483.56c-.11-1.1-.2-2.2-.29-3.31,58.06-6.15,110-41.26,114.21-24.95.94,6.42,1.34,18.22-2.24,22.39-8.33,9.67-27.08,15.35-41,17.24-12.53,1.69-48.66,1.35-68.54,1C547.46,491.81,546.88,487.66,546.13,483.56Z"/><path class="cls-10" d="M628.54,448.52c4.34,3.08,29.17,30.39,29.68,31.09,2.42-2.69,4.91-5.73,7.42-9.07q1.54-2.06,3.16-4.37c1.83-2.61,3.68-5.39,5.52-8.32l.87-1.39c16.58-26.7,33.21-64.92,38-93.38,2.19-13,1.92-23.89-1.91-30.81-5.34-9.63-18.13-17.27-25.3-7C677.48,337.49,643.26,422.86,628.54,448.52Z"/><path class="cls-10" d="M672.12,467c-1.66,3.83-9.78,16.73-20.68,21.73-9.32-13.84-22.32-28.61-33.24-41l1.75-.58,11.17-3.7a30.05,30.05,0,0,1,9.08,1.36C652.37,448.51,663.3,458.89,672.12,467Z"/><path class="cls-11" d="M672.12,467c-1.66,3.83-9.78,16.73-20.68,21.73-9.32-13.84-22.32-28.61-33.24-41l1.75-.58c4.69,3.54,9.26,7,13.87,10.68,5.61,4.5,11.81,8.37,16.43,13.91.21-3.17-3.48-9.5-5.19-12.12,1.83,2.12,5.68,4.31,8,6-.94-4.66-5.22-10-7.72-14.08a60.4,60.4,0,0,0-5.14-6.73C652.37,448.51,663.3,458.89,672.12,467Z"/><path class="cls-11" d="M649.71,453.43l15.93,17.11q1.54-2.06,3.16-4.37c1.79-2.57,3.64-5.35,5.52-8.32l.87-1.39c16.58-26.7,33.21-64.92,38-93.38C695.56,410.56,662.71,453.39,649.71,453.43Z"/><path class="cls-13" d="M654.86,295.86a56.3,56.3,0,0,1-10.67,18.83c-3.53,4.16-9.47,10.08-14.62,12.11-3.62,1.43-8.32,1.84-12.82,2l-.44-13.33-.51-2.32-.46-2.1-.79-3.72-.34-1.7-.83-4.16,36.88-19.77.91,2.79Z"/><path class="cls-7" d="M602.06,318.23c7.16,3,13.37,2.39,18.86,1,12.28-3.17,20.39-8,25.73-13.52,11.45-11.82,10.21-26.8,10.05-35.34l-7.45-28c-5.48-14.34-18.26-40.82-24.62-43-9.37-3.16-47.47,12.89-52.6,20.77-6.57,10.11,2.8,26.27,8.08,39.38,2.34,5.83,5.37,19.95,11.5,35.31,1.66,4.14,3.53,8.38,5.69,12.57C598.55,309.82,599.9,317.31,602.06,318.23Z"/><path class="cls-13" d="M585.17,273.47c-.68-3.25-3.32-10.62-3.28-14.76-.3-7.41,6.4-7.77,10.47-2.57,3,3.83,8.82,14.15,9.51,14.32-.59,1.36-3.11,3.55-4.83,4.47s-7.41,4-11.5.48C585.43,274.91,585.21,273.93,585.17,273.47Z"/><path class="cls-14" d="M564.24,243.82a36,36,0,0,1-2.14-5.68c-.21-1,.1-4.22-.05-4.28l8,2.33c1.24,1.14,2.18,3.76,3,5.29,1.75,3.11,2.94,6.57,4.47,9.81,2.51,5.34,5.68,12.2,5.25,18.25-3-5.93-7.74-10.68-11.93-15.84C568.25,250.49,565.86,247.67,564.24,243.82Z"/><path class="cls-2" d="M585.49,274.07a2.28,2.28,0,0,0,.1.38h0s0,0,0,0h0a.31.31,0,0,0,.14.17,9.62,9.62,0,0,0,2.16.72l.71.11a9.63,9.63,0,0,0,1.08.09,7.69,7.69,0,0,0,1,0c.31,0,.63,0,.94-.08h0c.44-.06.88-.14,1.3-.24a8.78,8.78,0,0,0,1.68-.6,1.63,1.63,0,0,0,.19-.09l.23-.11a6.1,6.1,0,0,0,1.18-.84l.18-.17.12-.12a3.43,3.43,0,0,0,1-2.48s0,0,0,0l-.62-1.19a18.5,18.5,0,0,0-2.12-3.29,4.77,4.77,0,0,0-3.19-1.85,3.4,3.4,0,0,0-.63,0h0a4.15,4.15,0,0,0-2.46.83,5.68,5.68,0,0,0-1.58,1.85,1.87,1.87,0,0,0-.17.31,10.43,10.43,0,0,0-.87,2.38h0a14.67,14.67,0,0,0-.37,2.39A8,8,0,0,0,585.49,274.07Z"/><path class="cls-15" d="M639.37,281.86l-.11-.06Z"/><path class="cls-14" d="M602.06,318.23c7.16,3,13.37,2.39,18.86,1,12.28-3.17,20.39-8,25.73-13.52-.14-1.71-.23-3.08-.22-3.52a26,26,0,0,0-.2-4.13c-.23-1.84-.65-3.67-1-5.47a25.19,25.19,0,0,0-2.05-5.21,44.76,44.76,0,0,0-3.73-5.31c-4.3.29-20.92.13-24.72.85-6.28,1.2-13.15,5.1-18.4,8.69-1.61,1.1-3.19,2.13-4.69,3.23,1.66,4.14,3.53,8.38,5.69,12.57C598.55,309.82,599.9,317.31,602.06,318.23Z"/><path class="cls-15" d="M639.16,281.76l.1,0Z"/><path class="cls-13" d="M595.92,293.6c5.87-3.32,16-5.09,24.35-6.76s15-3,15-3c0,.56-.3,3.86-.28,3.91a26.91,26.91,0,0,1,.13,4.29c-.55,3.61-4.49,7.26-7.72,10.49-5.58,5.81-11.73,8.12-17.34,7.38a31.59,31.59,0,0,1-5.9-7.26C600.17,299,597.31,296.22,595.92,293.6Z"/><path class="cls-2" d="M604.9,301.61c1.26-.72,1.6-2.88,3.15-3.1a35.35,35.35,0,0,0,8.14-1.71c4.18-1.43,13.41-3.84,16.39-7.12.09,2,1,3.86-.76,7.05a57.81,57.81,0,0,1-6,6c-3.76,3.09-8.89,6.58-15.51,5.73C608.61,308.25,606.08,304,604.9,301.61Z"/><path class="cls-2" d="M597,294.26a53.65,53.65,0,0,0,6,6.29c5.87,1.32,18.22-4,22.19-6.35,3.74-2.29,7.43-6.66,7.47-6.57a5.4,5.4,0,0,0-.52-3C624.34,287.23,612.17,292.16,597,294.26Z"/><path class="cls-16" d="M597,294.26a53.65,53.65,0,0,0,6,6.29c5.87,1.32,18.22-4,22.19-6.35,3.74-2.29,7.43-6.66,7.47-6.57a5.4,5.4,0,0,0-.52-3l-4.45,1.54c-.14,1.34-.66,4.54-3.57,6.08-4.08,2.11-16.69,6.89-22.65,5.4a49.62,49.62,0,0,1-3.61-3.55C597.59,294.18,597.3,294.23,597,294.26Z"/><path class="cls-13" d="M588.63,253.78c14,4.4,18.54,20.71,16.33,29.16,3.32.46,5,1.13,8.25.1A16.12,16.12,0,0,1,599.84,286C600,285.52,606.65,264.78,588.63,253.78Z"/><path class="cls-13" d="M636.81,252.77c-2-2.71-5.31-9.84-9-12.47-6.23-5-13.77-1.48-14.24,5.56-.34,5.18,1.17,14,1.81,16.52.13.53-1.38,2.87-2.1,3.6,2,.35,7-.53,10-1.5s12.81-4.16,14.82-10.12A12.65,12.65,0,0,0,636.81,252.77Z"/><path class="cls-2" d="M616.7,261v0c.1.43.21.86.32,1.3l0,0h0a4.77,4.77,0,0,0,2.51.73,7.88,7.88,0,0,0,1.18,0,12,12,0,0,0,1.49-.2l.46-.1.52-.13.09,0a18.11,18.11,0,0,0,1.78-.55,25.57,25.57,0,0,0,2.76-1.14l.25-.12.37-.18c.78-.39,1.54-.83,2.29-1.29l0,0a20.26,20.26,0,0,0,5.66-4.92.22.22,0,0,0,0-.24h0a1.14,1.14,0,0,0-.26-.37c-.9-.95-3.77-2.5-7.27-3a14.84,14.84,0,0,0-1.51-.16c-.42,0-.85,0-1.28,0a13.65,13.65,0,0,0-1.55.12l-.51.08a12,12,0,0,0-4.91,2.05,4.61,4.61,0,0,0-.38.28,7.46,7.46,0,0,0-1.36,1.32,5.27,5.27,0,0,0-1.1,2.62A11.34,11.34,0,0,0,616.7,261Z"/><path class="cls-17" d="M615.73,254.61a11.42,11.42,0,0,0,.6,2.44,10.53,10.53,0,0,0,.56,1.36,11.66,11.66,0,0,0,3.86,4.68,12,12,0,0,0,1.49-.2,1.65,1.65,0,0,0,.9-.16.91.91,0,0,0,.17-.09,18.11,18.11,0,0,0,1.78-.55,25.57,25.57,0,0,0,2.76-1.14,14.52,14.52,0,0,0-1.39-7.12,14.9,14.9,0,0,0-.82-1.48,12.18,12.18,0,0,0-1.19-1.57h-.37a11.31,11.31,0,0,0-7,2.45,6.58,6.58,0,0,0-1.18,1.18C615.83,254.48,615.77,254.54,615.73,254.61Z"/><path class="cls-18" d="M618.89,260c.82,1.7,2.17,2.84,3.35,2.94a1.65,1.65,0,0,0,.9-.16.91.91,0,0,0,.17-.09c1.16-.74,1.32-2.89.33-5a7.46,7.46,0,0,0-.75-1.23,6.17,6.17,0,0,0-.48-.54c-1-1-2.13-1.43-3-1C618.08,255.53,617.86,257.79,618.89,260Z"/><path class="cls-2" d="M621.4,257.28c.3.62.88,1,1.3.76s.53-.87.23-1.5-.88-1-1.31-.77S621.1,256.65,621.4,257.28Z"/><path class="cls-7" d="M617.08,262.47c-.9-3.54-1.65-6.62,1.76-9.26,7.15-5.49,16.87-.57,17.65,1-.8-1.83-11.62-9-18.81-3.47C614.26,253.38,616.18,258.93,617.08,262.47Z"/><path class="cls-14" d="M632.5,230.89c-6.38-3.95-16.71.06-23.81,4.4,1.8,2.17,4.76,6.82,6.56,9a40.43,40.43,0,0,1,4.5-4.47l-1.63-2.73c.78.51,1.55,1,2.31,1.57A42.67,42.67,0,0,1,632.5,230.89Z"/><path class="cls-14" d="M574.7,255.69c-.76-6,8.78-13.59,15.43-15.73.64,2.72,2.12,9.69,2.75,12.41a29.88,29.88,0,0,0-5.43.22l-1.11-3c0,.89-.05,1.79-.05,2.68A30.19,30.19,0,0,0,574.7,255.69Z"/><path class="cls-14" d="M554.74,236.15s4.65,9.73,18.13,7.79c9-1.3,31.27-22.28,38.08-25,5.48-2.21,10.09-2.8,14-2.2,6.41,1,10.89,5.18,14.1,10.71.58,1,1.13,2,1.63,3.13,5.79,12.39,6.59,29,8.48,32.44l9.73-12.37c-1.32-4.83.23-9.37-.68-27.67-.11-2.31-.27-4.84-.47-7.62,0-.1,0-.2,0-.3-.28-3.76.1-15.5-11.36-18l-.78-.15a69.71,69.71,0,0,0-13.11-.79c-2.32.14-7.69-4-9.89-3.75C563.66,198.16,554.74,236.15,554.74,236.15Z"/><path class="cls-19" d="M624.94,216.71c6.41,1,10.89,5.18,14.1,10.71.58,1,1.13,2,1.63,3.13,4.48-1.68,8.88-3.41,13.22-5.48,1.44-.68,2.89-1.39,4.31-2.12-.11-2.31-.27-4.84-.47-7.62,0-.1,0-.2,0-.3-.28-3.76.1-15.5-11.36-18a48,48,0,0,1-10.7,12.42A75,75,0,0,1,624.94,216.71Z"/><path class="cls-7" d="M651.51,263.89l-2.89-13.32c-3.86-10,20.35-19,17-.74-.9,4.84-1.08,9.69-3.12,14.14C660.16,269,653.55,270.33,651.51,263.89Z"/><path class="cls-9" d="M654.87,255.56a3.32,3.32,0,0,0-3.81-2.27c-1.75-3.25-.81-6.12,2-8.44,2.26-1.88,7.52-4.2,9.85-1.15A11.71,11.71,0,0,0,656,246c-1.87,1.26-2.47,3.06-3.59,4.83,3.3-1.65,7.92.2,6.88,4.28-.81,3.18-3.93,4.44-6.29,6.1l-.15-.06C654,259.14,655.55,258.13,654.87,255.56Z"/><path class="cls-17" d="M585.43,272.22a12.69,12.69,0,0,0,2.48,3.16l.71.11.43.05.65,0a7.69,7.69,0,0,0,1,0c.27,0,.53,0,.79-.06l.15,0h0c.44-.06.88-.14,1.3-.24a8.78,8.78,0,0,0,1.68-.6,14.52,14.52,0,0,0-1.47-7.23,15,15,0,0,0-.78-1.43,15.23,15.23,0,0,0-1.1-1.52l-.33,0h0a4.15,4.15,0,0,0-2.46.83,5.68,5.68,0,0,0-1.58,1.85,1,1,0,0,0-.18.06c-.72.35-1,1.38-.86,2.63h0A14.67,14.67,0,0,0,585.43,272.22Z"/><path class="cls-18" d="M586.5,271h0a6.89,6.89,0,0,0,.64,2.1,6.4,6.4,0,0,0,1.91,2.41l.65,0a7.69,7.69,0,0,0,1,0c.27,0,.53,0,.79-.06.59-.82.56-2.43-.15-4.06l-.12-.25a6.76,6.76,0,0,0-1.17-1.75,2.66,2.66,0,0,0-2.47-1.12.67.67,0,0,0-.18.07C586.64,268.75,586.34,269.78,586.5,271Z"/><path class="cls-2" d="M590.18,271.77c.29.6.81,1,1.17.78s.42-.8.14-1.41-.82-.95-1.18-.77S589.89,271.17,590.18,271.77Z"/><path class="cls-7" d="M597.51,270.93c-1.68-3.24-3.16-6-5.92-6.33-5.78-.6-6.57,8.28-6,9.92-.74-1.84-.82-13.06,5-12.46C593.38,262.35,595.83,267.69,597.51,270.93Z"/><rect class="cls-20" x="161.21" y="853.41" width="816.96" height="28.94"/><rect class="cls-21" x="144.76" y="521.44" width="849.86" height="341.74"/><rect class="cls-20" x="654.64" y="521.44" width="339.98" height="341.74"/><rect class="cls-20" x="113.19" y="521.44" width="914.33" height="19.64"/><rect class="cls-20" x="173.15" y="576.09" width="133.36" height="261.8"/><rect class="cls-21" x="200.56" y="584.24" width="96.35" height="245.49"/><rect class="cls-20" x="331.93" y="576.09" width="133.36" height="261.8"/><rect class="cls-21" x="359.35" y="584.24" width="96.35" height="245.49"/><rect class="cls-20" x="490.71" y="576.09" width="133.36" height="261.8"/><rect class="cls-21" x="518.13" y="584.24" width="96.35" height="245.49"/><path class="cls-7" d="M537.46,476.49a18.09,18.09,0,0,0-2.82-3.43c-2.37-1.83-5.9-1.7-8.77-2.75-1.36-.49-10.36-4.86-9.86-1.6.17,1.12,2.69,3.92,3.39,4.9.94,1.33,6.26,1.85,7.39,2.89l15.78,4.77C541.94,479.58,538.73,478.06,537.46,476.49Z"/><path class="cls-2" d="M509,465.31v15.38a6.68,6.68,0,0,1-.84,3.27,6.76,6.76,0,0,1-5,3.45,5.78,5.78,0,0,1-.94.07H474.36a5.86,5.86,0,0,1-.94-.07,6.25,6.25,0,0,1-1.57-.41,6.79,6.79,0,0,1-4.28-6.31V465.31Z"/><path class="cls-2" d="M504,484.09a6.65,6.65,0,0,1-.87,3.32,6.77,6.77,0,0,1-5.92,3.47H479.34a6.78,6.78,0,0,1-5.92-3.47,5.68,5.68,0,0,1-.28-.55,6.79,6.79,0,0,1,6.2-9.56h17.88a6.8,6.8,0,0,1,6.61,5.22A6.81,6.81,0,0,1,504,484.09Z"/><path class="cls-22" d="M518.68,470.23c-1.74-1.75-4-1.89-6.36-1.89-1.09,0-2.21-.06-3.33,0a14.39,14.39,0,0,0-2.63.27c-3.11.67-5.05,3.71-5.18,6.72a11.92,11.92,0,0,0,.31,3.52,7.13,7.13,0,0,0,1.88,3.3,5.87,5.87,0,0,0,.46.41,7.32,7.32,0,0,0,4.32,1.44c.52,0,1.05,0,1.59,0a28.26,28.26,0,0,0,6-.23c3-.65,4.95-3.56,5.16-6.51a1.49,1.49,0,0,0,0-.21v-.17C520.87,474.34,520.59,472.13,518.68,470.23Zm-1.2,6.82c-.18,4.23-4.8,3.56-7.74,3.56H509a4.52,4.52,0,0,1-3.21-.9c-1.35-1.15-1.2-2.83-1.2-4.42,0-2.79,2.14-3.45,4.41-3.57,1.17-.06,2.37,0,3.33,0,1.43,0,2.79-.11,4,.89C517.63,473.78,517.48,475.46,517.48,477.05Z"/><path class="cls-16" d="M518.68,470.23c-1.74-1.75-4-1.89-6.36-1.89-1.09,0-2.21-.06-3.33,0v-3H497.41c0,1.28,0,2.56,0,3.81A17.52,17.52,0,0,1,496,477.3a6.67,6.67,0,0,1-1.53,2c-4,3.52-10.65.66-15,2.71,1.2.43,3.89-.09,3.88,1.82s-3.21,1.82-4.52,2.08c-1.92.39-3.84.68-5.76.91l-1.29.14a6.25,6.25,0,0,0,1.57.41,6.78,6.78,0,0,0,5.92,3.47h17.88A88.83,88.83,0,0,0,508.15,484c.52,0,1.05,0,1.59,0a28.26,28.26,0,0,0,6-.23c3-.65,4.95-3.56,5.16-6.51a1.49,1.49,0,0,0,0-.21v-.17C520.87,474.34,520.59,472.13,518.68,470.23Zm-1.2,6.82c-.18,4.23-4.8,3.56-7.74,3.56H509v-8.89c1.17-.06,2.37,0,3.33,0,1.43,0,2.79-.11,4,.89C517.63,473.78,517.48,475.46,517.48,477.05Z"/><path class="cls-7" d="M549.46,479.83c-4.24-.46-12.6-1.86-16.82-3.79-2.68-1.22-11.77-3.63-14.38-4.53-2.44-.84-5.35-2.79-7.05-.77-1.11,1.3.1,4.35-1,5.65-3.31,4,.58,8.17.79,9.76.26,1.91,0,3.15,1.25,4.78,1.12,1.47,1.58,1.19,2.87,2.52,1,1.05,1.11,1.84,2.25,2.75,3.42,2.72,11.21,1.85,15.27,1.33,3.85-.49,16.68-.5,19.76-2.94Z"/><path class="cls-23" d="M486.52,439.18a2.86,2.86,0,0,1-2.86,2.86h0a2.87,2.87,0,0,1-2.87-2.86V400.71a2.87,2.87,0,0,1,2.87-2.86h0a2.86,2.86,0,0,1,2.86,2.86Z"/><path class="cls-24" d="M506.92,395v10.57a11,11,0,0,1-11,11H433.17a11,11,0,0,1-11-11V395a11,11,0,0,1,11-11h62.74A11,11,0,0,1,506.92,395Z"/><path class="cls-25" d="M506.92,400.23v5.29a11,11,0,0,1-11,11H433.17a11,11,0,0,1-11-11v-5.29Z"/><rect class="cls-24" x="207.5" y="383.94" width="268.78" height="122.57" rx="24.54"/><path class="cls-25" d="M452.06,408.48V482a24.53,24.53,0,0,1-24.53,24.54H232A24.53,24.53,0,0,1,207.5,482V408.48A24.53,24.53,0,0,1,232,383.94h195.5a24.52,24.52,0,0,1,24.53,24.54Z"/><path class="cls-26" d="M420.14,399.67V455.1c0,13.56-10.24,24.54-22.88,24.54H215a21.59,21.59,0,0,1-7.47-1.34V408.48A24.53,24.53,0,0,1,232,383.94H403.86A24.43,24.43,0,0,1,417.4,388,25.84,25.84,0,0,1,420.14,399.67Z"/><path class="cls-26" d="M529.79,501.93v9.16a11.07,11.07,0,0,1-11.13,11h-300a11.06,11.06,0,0,1-11.12-11v-9.16a11,11,0,0,1,.4-2.94,11.1,11.1,0,0,1,10.72-8.06h300A11.06,11.06,0,0,1,529.79,501.93Z"/><rect class="cls-24" x="435.77" y="490.93" width="94.02" height="31.17" rx="11.01"/><path class="cls-24" d="M506.91,497.34c-10.35-7.59-35.64-27.19-36.57-55l-11.69,55Z"/><path class="cls-24" d="M452.06,504.49a5.51,5.51,0,0,1-5.5,5.51H207.5v-8.07a11,11,0,0,1,.4-2.94H446.56A5.5,5.5,0,0,1,452.06,504.49Z"/><path class="cls-2" d="M809.54,490.65V506a6.78,6.78,0,0,1-5.85,6.72,5.86,5.86,0,0,1-.94.07H774.91a7.16,7.16,0,0,1-.94-.07,6.94,6.94,0,0,1-1.58-.42,6.78,6.78,0,0,1-4.27-6.3V490.65Z"/><path class="cls-2" d="M804.56,509.44a6.8,6.8,0,0,1-6.79,6.79H779.89a6.77,6.77,0,0,1-5.92-3.47,5.77,5.77,0,0,1-.29-.55,6.94,6.94,0,0,1-.58-2.77,6.79,6.79,0,0,1,6.79-6.79h17.88a6.82,6.82,0,0,1,6.79,6.79Z"/><path class="cls-22" d="M819.23,495.58c-1.75-1.75-4.06-1.89-6.36-1.89-1.09,0-2.22-.06-3.33,0a13.67,13.67,0,0,0-2.64.27c-3.11.67-5,3.71-5.17,6.72a12,12,0,0,0,.3,3.52,7.15,7.15,0,0,0,1.89,3.3c.15.15.3.28.45.41a7.35,7.35,0,0,0,4.33,1.44c.52,0,1,0,1.58,0a28.91,28.91,0,0,0,6-.23,7,7,0,0,0,5.17-6.51,1.55,1.55,0,0,0,0-.22v-.17C821.41,499.69,821.14,497.48,819.23,495.58Zm-1.2,6.81c-.19,4.24-4.8,3.56-7.75,3.56h-.74a4.54,4.54,0,0,1-3.22-.9c-1.35-1.15-1.19-2.83-1.19-4.42,0-2.8,2.14-3.45,4.41-3.57,1.17-.06,2.37,0,3.33,0,1.43,0,2.78-.1,4,.9C818.18,499.12,818,500.81,818,502.39Z"/><path class="cls-16" d="M819.23,495.58c-1.75-1.75-4.06-1.89-6.36-1.89-1.09,0-2.22-.06-3.33,0v-3H798c0,1.29,0,2.56.06,3.81a17.57,17.57,0,0,1-1.43,8.19,6.8,6.8,0,0,1-1.52,2c-4,3.52-10.65.66-15,2.71,1.21.43,3.9-.09,3.88,1.81s-3.2,1.82-4.51,2.09c-1.93.39-3.84.68-5.77.91l-1.29.13a6.94,6.94,0,0,0,1.58.42,6.77,6.77,0,0,0,5.92,3.47h17.88a88.83,88.83,0,0,0,10.93-6.92c.52,0,1,0,1.58,0a28.91,28.91,0,0,0,6-.23,7,7,0,0,0,5.17-6.51,1.55,1.55,0,0,0,0-.22v-.17C821.41,499.69,821.14,497.48,819.23,495.58Zm-1.2,6.81c-.19,4.24-4.8,3.56-7.75,3.56h-.74v-8.89c1.17-.06,2.37,0,3.33,0,1.43,0,2.78-.1,4,.9C818.18,499.12,818,500.81,818,502.39Z"/><path class="cls-2" d="M867.47,491.27v15.38a6.68,6.68,0,0,1-.84,3.27,6.79,6.79,0,0,1-5,3.46,7.3,7.3,0,0,1-.94.06H832.84a7.3,7.3,0,0,1-.94-.06,6.94,6.94,0,0,1-1.58-.42,6.8,6.8,0,0,1-4.27-6.31V491.27Z"/><path class="cls-2" d="M862.49,510.05a6.78,6.78,0,0,1-6.79,6.79H837.82a6.8,6.8,0,0,1-5.92-3.46c-.1-.19-.2-.37-.28-.56a6.79,6.79,0,0,1,6.2-9.56H855.7a6.8,6.8,0,0,1,6.6,5.22A6.31,6.31,0,0,1,862.49,510.05Z"/><path class="cls-22" d="M877.16,496.19c-1.75-1.75-4.06-1.89-6.36-1.89-1.09,0-2.22-.06-3.33,0a14.3,14.3,0,0,0-2.63.27c-3.12.67-5.05,3.71-5.18,6.73a11.88,11.88,0,0,0,.3,3.51,7.15,7.15,0,0,0,1.89,3.3c.15.15.3.28.45.41a7.35,7.35,0,0,0,4.33,1.44c.52,0,1,0,1.58,0a28.35,28.35,0,0,0,6-.23c3-.65,5-3.56,5.16-6.51a1.48,1.48,0,0,0,0-.21v-.17C879.34,500.3,879.07,498.09,877.16,496.19ZM876,503c-.18,4.23-4.8,3.56-7.75,3.56h-.74a4.55,4.55,0,0,1-3.22-.9c-1.35-1.15-1.19-2.83-1.19-4.41,0-2.8,2.14-3.46,4.41-3.58,1.17-.06,2.37,0,3.33,0,1.43,0,2.79-.11,4,.89C876.11,499.74,876,501.42,876,503Z"/><path class="cls-16" d="M877.16,496.19c-1.75-1.75-4.06-1.89-6.36-1.89-1.09,0-2.22-.06-3.33,0v-3H855.88c0,1.28,0,2.56.06,3.81a17.53,17.53,0,0,1-1.43,8.18,6.8,6.8,0,0,1-1.52,2c-4,3.52-10.65.66-15,2.71,1.2.43,3.89-.09,3.87,1.82s-3.2,1.82-4.51,2.09c-1.92.39-3.84.67-5.76.9l-1.3.14a6.94,6.94,0,0,0,1.58.42,6.8,6.8,0,0,0,5.92,3.46H855.7a85.77,85.77,0,0,0,10.93-6.92c.52,0,1,0,1.58,0a28.35,28.35,0,0,0,6-.23c3-.65,5-3.56,5.16-6.51a1.48,1.48,0,0,0,0-.21v-.17C879.34,500.3,879.07,498.09,877.16,496.19ZM876,503c-.18,4.23-4.8,3.56-7.75,3.56h-.74v-8.89c1.17-.06,2.37,0,3.33,0,1.43,0,2.79-.11,4,.89C876.11,499.74,876,501.42,876,503Z"/><path class="cls-26" d="M719.41,515a4.92,4.92,0,0,0-.2,1.39,5.09,5.09,0,0,0,5.09,5.09H905.06a5.08,5.08,0,0,0,5.08-5.09A5.3,5.3,0,0,0,910,515Z"/><path class="cls-27" d="M913.79,514.77a1.16,1.16,0,0,0-1.16-1.16H716.72a1.16,1.16,0,0,0-1.16,1.16h0a1.16,1.16,0,0,0,1.16,1.15H912.63a1.16,1.16,0,0,0,1.16-1.15Z"/><path class="cls-28" d="M767.54,211.16H703.92c-.35-12.88-2-23.52,9.21-32.3,3.84-3,7.63-5.79,11-8.8,5.08-4.47,9.28-9.47,11.49-16.56,0,.13.05.26.07.39,0-.13.06-.26.08-.39,3.68,11.84,13,17.83,22.53,25.36C769.51,187.64,767.9,198.28,767.54,211.16Z"/><path class="cls-29" d="M744.41,211.16H703.92c-.35-12.88-2-23.52,9.21-32.3,3.84-3,7.63-5.79,11-8.8,3.4,3,7.19,5.78,11,8.8C746.37,187.64,744.76,198.28,744.41,211.16Z"/><path class="cls-28" d="M742.23,153.93a3,3,0,0,1-3.05,3h-6.9a3,3,0,0,1-3-3h0a3,3,0,0,1,3-3.05h6.9a3,3,0,0,1,3.05,3.05Z"/><rect class="cls-28" x="734.08" y="131.29" width="3.3" height="36.61"/></g></g></svg>