<svg xmlns="http://www.w3.org/2000/svg" viewBox="0 0 409.66 345.13"><defs><style>.cls-1{fill:#d6edff;}.cls-2{fill:#3f7eb0;}.cls-3{fill:#4a94cf;}.cls-4{fill:#fff;}.cls-5{fill:#bae1ff;}.cls-6{fill:#de9c73;}.cls-7{fill:#e8b799;}.cls-8{fill:#54472d;}.cls-9{fill:#99d2ff;}.cls-10,.cls-11,.cls-12,.cls-13{fill:none;stroke:#fff;stroke-miterlimit:10;}.cls-11,.cls-12{stroke-width:7px;}.cls-12{stroke-linecap:round;}.cls-13{stroke-width:5px;}</style></defs><g id="Layer_2" data-name="Layer 2"><g id="Background"><path class="cls-1" d="M31.07,271.88c-47.19-43.29-2.85-97.92,41.07-113l2.4-.81c65-21.37,72.34-97.06,145.27-105.55,72.5-8.44,65.95,37,136,37,57.6,0,73.55,56.53,25.4,105.66-49.33,50.33-1.19,140.54-83.73,149.37C235.23,351.24,227.37,296.4,93,282.33,70.85,280,44.48,284.18,31.07,271.88Z"/></g><g id="Objects"><rect class="cls-2" x="185.39" y="293.09" width="44.91" height="30.58"/><rect class="cls-3" x="99.2" y="35.43" width="217.28" height="325.5" rx="14.79" transform="translate(406.02 -9.67) rotate(90)"/><rect class="cls-1" x="53.1" y="97.53" width="309.5" height="201.29" rx="6.79"/><rect class="cls-4" x="207.85" y="129.07" width="139.11" height="139.11"/><path class="cls-5" d="M276.76,231.69v36.54H240.27V249a6.68,6.68,0,0,1,4.37-6.27l16.85-6.24,6.26-2Z"/><path class="cls-5" d="M314.55,249v19.19h-36.5V231.69l9.06,2.87,6.22,2,16.85,6.24A6.69,6.69,0,0,1,314.55,249Z"/><rect class="cls-6" x="267.75" y="217.17" width="19.36" height="19.36"/><path class="cls-7" d="M256.63,191.51h4.85v11.66h-3.24a2.24,2.24,0,0,1-2.19-1.75l-1.61-7.17A2.24,2.24,0,0,1,256.63,191.51Z"/><path class="cls-7" d="M277.4,165.21l-23,12.57,6.69,34c.75,3.81,3.76,7.58,7.68,10.58a9,9,0,0,0,5.5,1.83H281a9.24,9.24,0,0,0,5.87-2.11c3.45-2.86,6.17-6.67,6.89-10.3l8-40.59Z"/><path class="cls-7" d="M298.18,191.51h-4.86v11.66h3.25a2.24,2.24,0,0,0,2.19-1.75l1.61-7.17A2.25,2.25,0,0,0,298.18,191.51Z"/><path class="cls-8" d="M253.85,175.08,258.17,197l1.87-1.3a3.27,3.27,0,0,0,1.4-3L259,168.21l-2.51,1.28a5,5,0,0,0-2.63,5.4Z"/><path class="cls-8" d="M300.93,175.08,296.62,197l-1.88-1.3a3.29,3.29,0,0,1-1.4-3l2.5-24.48,2.51,1.28a5,5,0,0,1,2.62,5.4Z"/><path class="cls-8" d="M263.13,161.64h43.06a0,0,0,0,1,0,0v3.29a12.86,12.86,0,0,1-12.86,12.86H257.57a0,0,0,0,1,0,0v-10.6A5.56,5.56,0,0,1,263.13,161.64Z"/><path class="cls-8" d="M262.54,179.41c0,3.4-1.54,6.16-3.44,6.16s-3.45-2.76-3.45-6.16,1.55-6.15,3.45-6.15S262.54,176,262.54,179.41Z"/><path class="cls-8" d="M299.19,179.41c0,3.4-1.54,6.16-3.44,6.16s-3.44-2.76-3.44-6.16,1.54-6.15,3.44-6.15S299.19,176,299.19,179.41Z"/><polygon class="cls-9" points="277.43 231.69 277.43 268.23 271.27 268.23 271.92 264.28 275.78 240.76 274.22 238.64 272.75 236.66 272.87 236.53 276.76 232.4 277.01 232.14 277.43 231.69"/><polygon class="cls-9" points="283.59 268.23 277.43 268.23 277.43 231.69 277.82 232.11 278.05 232.35 281.99 236.53 282.11 236.66 280.62 238.68 279.08 240.76 282.94 264.28 283.59 268.23"/><polygon class="cls-1" points="261.48 236.53 267.75 226.85 278.05 231.69 272.22 242.25 261.48 236.53"/><polygon class="cls-1" points="293.32 236.53 287.06 226.85 276.76 231.69 282.58 242.25 293.32 236.53"/><path class="cls-9" d="M231.57,210.07h-5.09V248.9h38.2v-5.08H231.57Zm-5.09-61.72v37.54h5.09V153.44h33.11v-5.09ZM322,243.82h-33.1v5.08H327V210.07H322Zm-33.1-95.47v5.09H322v32.45H327V148.35Z"/><path class="cls-3" d="M253.39,319.67H162.31a4,4,0,0,0-4,4h0a4,4,0,0,0,4,4h91.08a4,4,0,0,0,4-4h0A4,4,0,0,0,253.39,319.67Z"/><rect class="cls-4" x="68.89" y="129.93" width="97.69" height="9.4"/><rect class="cls-4" x="68.89" y="145.52" width="97.69" height="9.4"/><rect class="cls-4" x="68.89" y="161.12" width="97.69" height="9.4"/><rect class="cls-4" x="68.89" y="176.72" width="97.69" height="9.4"/><rect class="cls-4" x="68.89" y="192.32" width="97.69" height="9.4"/><rect class="cls-4" x="68.89" y="207.91" width="97.69" height="9.4"/><rect class="cls-4" x="68.89" y="223.51" width="97.69" height="9.4"/><rect class="cls-4" x="68.89" y="239.11" width="97.69" height="9.4"/><rect class="cls-4" x="68.89" y="254.71" width="97.69" height="9.4"/><rect class="cls-4" x="170.36" y="129.93" width="24.69" height="9.4"/><rect class="cls-4" x="170.36" y="145.52" width="24.69" height="9.4"/><rect class="cls-4" x="170.36" y="161.12" width="24.69" height="9.4"/><rect class="cls-4" x="170.36" y="176.72" width="24.69" height="9.4"/><rect class="cls-4" x="170.36" y="192.32" width="24.69" height="9.4"/><rect class="cls-4" x="170.36" y="207.91" width="24.69" height="9.4"/><rect class="cls-4" x="170.36" y="223.51" width="24.69" height="9.4"/><rect class="cls-4" x="170.36" y="239.11" width="24.69" height="9.4"/><rect class="cls-4" x="170.36" y="254.71" width="24.69" height="9.4"/><rect class="cls-3" x="207.85" y="273.1" width="139.11" height="9.23"/><rect class="cls-4" x="207.85" y="273.1" width="32.42" height="9.23"/><rect class="cls-4" x="68.89" y="273.1" width="126.44" height="9.23"/><rect class="cls-3" x="62.68" y="110.28" width="23.73" height="7.22"/><rect class="cls-3" x="323.23" y="110.28" width="23.73" height="7.22"/><rect class="cls-3" x="109.9" y="110.28" width="177.2" height="7.22"/><path class="cls-9" d="M219.81,110.27a110.23,110.23,0,0,1-41.35,86.2A109.1,109.1,0,0,1,119.8,220.1c-2.87.27-5.77.41-8.7.44h-2.39c-2.91,0-5.78-.17-8.62-.43a109.13,109.13,0,0,1-58.76-23.65A110.23,110.23,0,0,1,0,110.27C0,49.37,49.2,0,109.9,0S219.81,49.37,219.81,110.27Z"/><path class="cls-5" d="M108.83,156v52.38c-2.59,0-5.15-.16-7.69-.38A97.65,97.65,0,0,1,48.67,187v-2.33a11,11,0,0,1,7.21-10.35L83.65,164,94,160.74Z"/><path class="cls-5" d="M171.12,184.65V187a97.66,97.66,0,0,1-52.38,21q-3.84.34-7.77.39V156l14.93,4.73L136.15,164l27.77,10.29A11,11,0,0,1,171.12,184.65Z"/><rect class="cls-6" x="93.98" y="132.1" width="31.92" height="31.92"/><path class="cls-7" d="M75.66,89.8h8V109H78.31a3.7,3.7,0,0,1-3.61-2.89L72,94.31A3.71,3.71,0,0,1,75.66,89.8Z"/><path class="cls-7" d="M109.9,46.45,72,67.17l11,56.06c1.24,6.28,6.2,12.49,12.66,17.45a14.87,14.87,0,0,0,9.07,3h11.1a15.22,15.22,0,0,0,9.68-3.48c5.68-4.71,10.17-11,11.35-17L150,56.32Z"/><path class="cls-7" d="M144.15,89.8h-8V109h5.34a3.7,3.7,0,0,0,3.62-2.89l2.65-11.83A3.7,3.7,0,0,0,144.15,89.8Z"/><path class="cls-8" d="M71.08,62.72l7.11,36.16,3.09-2.14a5.39,5.39,0,0,0,2.31-5L79.48,51.38,75.34,53.5A8.2,8.2,0,0,0,71,62.4Z"/><path class="cls-8" d="M148.69,62.72l-7.11,36.16-3.1-2.14a5.41,5.41,0,0,1-2.31-5l4.12-40.36,4.14,2.12a8.22,8.22,0,0,1,4.32,8.9Z"/><path class="cls-8" d="M86.36,40.55h71a0,0,0,0,1,0,0V46a21.21,21.21,0,0,1-21.21,21.21H77.2a0,0,0,0,1,0,0V49.71a9.16,9.16,0,0,1,9.16-9.16Z"/><ellipse class="cls-8" cx="79.72" cy="69.86" rx="5.68" ry="10.15"/><path class="cls-8" d="M145.82,69.86c0,5.6-2.54,10.15-5.67,10.15s-5.68-4.55-5.68-10.15,2.54-10.15,5.68-10.15S145.82,64.25,145.82,69.86Z"/><path class="cls-9" d="M110,156v52.39h-1.12c-2.59,0-5.15-.16-7.69-.38L107.23,171l-2.58-3.48-2.42-3.26.22-.23,6.38-6.8.41-.44Z"/><path class="cls-9" d="M118.74,208q-3.84.34-7.77.39h-1V156l.64.69.38.41,6.47,6.88.22.23-2.46,3.31L112.65,171Z"/><polygon class="cls-1" points="83.66 164.01 93.98 148.05 110.97 156.03 101.36 173.45 83.66 164.01"/><polygon class="cls-1" points="136.15 164.01 125.82 148.05 108.84 156.03 118.44 173.45 136.15 164.01"/><path class="cls-4" d="M56.6,127.4H50.48v46.73h46V168H56.6ZM50.48,53.15V98.32H56.6V59.26H96.44V53.15ZM165.34,168H125.53v6.12h45.93V127.4h-6.12ZM125.53,53.15v6.11h39.81V98.32h6.12V53.15Z"/><path class="cls-4" d="M93,80.79a2.19,2.19,0,1,1-2.19-2.18A2.19,2.19,0,0,1,93,80.79Z"/><path class="cls-4" d="M112.62,87.62a2.19,2.19,0,1,1-2.18-2.19A2.19,2.19,0,0,1,112.62,87.62Z"/><circle class="cls-4" cx="86.41" cy="104.82" r="2.18"/><path class="cls-4" d="M107,107a2.19,2.19,0,1,1-2.18-2.19A2.19,2.19,0,0,1,107,107Z"/><circle class="cls-4" cx="99.88" cy="134.13" r="2.18"/><path class="cls-4" d="M124.19,134.13A2.18,2.18,0,1,1,122,132,2.18,2.18,0,0,1,124.19,134.13Z"/><path class="cls-4" d="M113.15,123.26a2.18,2.18,0,1,1-2.18-2.19A2.18,2.18,0,0,1,113.15,123.26Z"/><polyline class="cls-10" points="90.78 80.79 110.44 87.61 104.8 107.01 110.97 123.26 99.88 134.13 86.41 104.82 90.78 80.79 104.8 107.01"/><path class="cls-4" d="M128.74,80.79a2.19,2.19,0,1,0,2.18-2.18A2.19,2.19,0,0,0,128.74,80.79Z"/><path class="cls-4" d="M133.11,104.82a2.18,2.18,0,1,0,2.18-2.18A2.19,2.19,0,0,0,133.11,104.82Z"/><circle class="cls-4" cx="116.9" cy="107.01" r="2.18"/><polyline class="cls-10" points="130.93 80.79 135.29 104.82 121.82 134.13 110.73 123.26 116.9 107.01 111.26 87.61 130.93 80.79 116.9 107.01"/><path class="cls-9" d="M389.47,298.82a41.72,41.72,0,0,1-37.91,41.63c-1.09.1-2.18.15-3.3.17h-.9c-1.1,0-2.19-.07-3.27-.17a41.33,41.33,0,0,1-22.27-9,41.74,41.74,0,1,1,67.65-32.67Z"/><polyline class="cls-11" points="328.69 296.52 347.81 311.56 366.57 284.24"/><path class="cls-9" d="M84.87,255.39a31.87,31.87,0,0,1-12,24.92,31.55,31.55,0,0,1-17,6.83c-.83.08-1.67.12-2.52.13h-.69q-1.26,0-2.49-.12a31.88,31.88,0,1,1,34.61-31.76Z"/><path class="cls-4" d="M53.1,241l-13.66,4.47v12.73c0,8.83,7.38,14,13.66,16,6.28-2,13.65-7.16,13.65-16V245.44Z"/><path class="cls-9" d="M55.91,254.86v-1.69a2.79,2.79,0,0,0-5.58,0v1.69H49.09v8h8v-8Zm-4-1.69a1.23,1.23,0,0,1,2.46,0v1.69H51.89Z"/><path class="cls-9" d="M388.62,104.64a41.72,41.72,0,0,1-37.91,41.63c-1.09.1-2.18.15-3.3.17h-.9c-1.1,0-2.19-.07-3.27-.17a41.33,41.33,0,0,1-22.27-9,41.74,41.74,0,1,1,67.65-32.67Z"/><circle class="cls-11" cx="351.94" cy="97.52" r="17.19" transform="matrix(0.61, -0.79, 0.79, 0.61, 59.44, 316.19)"/><line class="cls-12" x1="325.75" y1="125.35" x2="340.26" y2="110.85"/><path class="cls-9" d="M174.77,300.25a41.77,41.77,0,0,1-15.68,32.68,41.33,41.33,0,0,1-22.23,9c-1.09.1-2.19.15-3.3.16h-.91c-1.1,0-2.19-.06-3.26-.16a41.34,41.34,0,0,1-22.27-9,41.74,41.74,0,1,1,67.65-32.68Z"/><rect class="cls-4" x="120.29" y="293.35" width="25.63" height="25.63"/><rect class="cls-13" x="126.75" y="281.54" width="12.87" height="22.8" rx="6.43"/><path class="cls-9" d="M135.64,304.33a2.46,2.46,0,1,1-2.46-2.45A2.45,2.45,0,0,1,135.64,304.33Z"/><path class="cls-9" d="M133.11,310.29h0a1,1,0,0,1-1-1v-4.16a1,1,0,0,1,1-.95h0a1,1,0,0,1,.95.95v4.16A1,1,0,0,1,133.11,310.29Z"/></g></g></svg>